<?xml version="1.0" encoding="utf-8"?>
<!-- Generator: Adobe Illustrator 16.0.0, SVG Export Plug-In . SVG Version: 6.00 Build 0)  -->
<!DOCTYPE svg PUBLIC "-//W3C//DTD SVG 1.1//EN" "http://www.w3.org/Graphics/SVG/1.1/DTD/svg11.dtd">
<svg version="1.1" id="Layer_1" xmlns="http://www.w3.org/2000/svg" xmlns:xlink="http://www.w3.org/1999/xlink" x="0px" y="0px"
	 width="214.508px" height="48px" viewBox="0 0 214.508 48" enable-background="new 0 0 214.508 48" xml:space="preserve">
<g id="Lizotte_Logo_6_">
	<g>
		<path fill="#FFFFFF" d="M15.524,45.277c0.025,0,0.045,0.006,0.062,0.018c0.015,0.01,0.029,0.028,0.039,0.054l0.81,2.085
			c0.024,0.062,0.024,0.113,0,0.154c-0.022,0.041-0.052,0.068-0.091,0.078c-0.051,0.006-0.086,0.014-0.108,0.027
			c-0.023,0.014-0.034,0.033-0.034,0.064c0.001,0.033,0.028,0.053,0.084,0.062c0.054,0.009,0.126,0.015,0.219,0.019
			c0.271,0.007,0.53,0.012,0.774,0.014c0.245,0.004,0.465,0.005,0.661,0.005c0.194,0.002,0.354,0.002,0.478,0.002
			c0.123,0,0.219-0.003,0.286-0.009c0.068-0.005,0.115-0.016,0.142-0.03c0.025-0.015,0.039-0.035,0.037-0.062
			c0-0.035-0.012-0.059-0.036-0.068s-0.056-0.016-0.096-0.014c-0.061,0-0.128-0.003-0.201-0.008
			c-0.072-0.008-0.148-0.018-0.224-0.032c-0.052-0.011-0.111-0.032-0.175-0.065c-0.062-0.032-0.132-0.088-0.206-0.164
			s-0.153-0.184-0.238-0.324c-0.084-0.14-0.175-0.324-0.271-0.549c-0.081-0.195-0.175-0.422-0.283-0.684s-0.225-0.543-0.348-0.847
			c-0.125-0.306-0.253-0.619-0.384-0.942c-0.132-0.324-0.262-0.646-0.392-0.967s-0.254-0.627-0.373-0.921
			c-0.12-0.294-0.228-0.562-0.327-0.805c-0.098-0.243-0.182-0.448-0.251-0.617c-0.071-0.169-0.12-0.29-0.151-0.36
			c-0.049-0.115-0.093-0.199-0.13-0.25c-0.039-0.051-0.079-0.076-0.123-0.074c-0.049-0.002-0.092,0.028-0.133,0.093
			c-0.042,0.062-0.091,0.167-0.15,0.312l-2.54,6.274c-0.066,0.169-0.135,0.319-0.209,0.446c-0.074,0.131-0.164,0.234-0.267,0.314
			c-0.103,0.079-0.231,0.13-0.385,0.15c-0.042,0.004-0.094,0.01-0.153,0.014s-0.113,0.006-0.16,0.006
			c-0.041,0-0.071,0.006-0.091,0.02c-0.02,0.012-0.03,0.031-0.03,0.062c0,0.038,0.015,0.064,0.047,0.08
			c0.03,0.014,0.079,0.021,0.145,0.021c0.133,0,0.263-0.002,0.393-0.005c0.13-0.004,0.25-0.008,0.359-0.01
			c0.111-0.004,0.206-0.008,0.282-0.011c0.078-0.003,0.132-0.005,0.16-0.005c0.106,0,0.221,0.004,0.346,0.008
			c0.125,0.006,0.25,0.009,0.375,0.014c0.126,0.006,0.243,0.009,0.353,0.009c0.056,0,0.098-0.007,0.128-0.021
			c0.029-0.016,0.044-0.042,0.044-0.08c0.001-0.031-0.008-0.051-0.03-0.062c-0.022-0.014-0.062-0.02-0.122-0.02h-0.152
			c-0.153-0.002-0.262-0.03-0.32-0.088c-0.059-0.057-0.088-0.133-0.084-0.226c0-0.062,0.014-0.149,0.039-0.26
			c0.025-0.109,0.062-0.229,0.113-0.357l0.546-1.386c0.01-0.031,0.02-0.051,0.034-0.064c0.014-0.012,0.032-0.018,0.057-0.018H15.524
			L15.524,45.277z M174.534,44.924c0,0.312,0,0.604-0.002,0.879c-0.001,0.273-0.007,0.518-0.014,0.734
			c-0.007,0.219-0.019,0.398-0.035,0.542c-0.012,0.098-0.028,0.187-0.049,0.265c-0.021,0.08-0.049,0.144-0.088,0.194
			c-0.037,0.05-0.089,0.084-0.157,0.098c-0.045,0.01-0.098,0.021-0.158,0.028s-0.13,0.012-0.205,0.012
			c-0.06,0-0.102,0.007-0.127,0.021c-0.023,0.014-0.035,0.035-0.035,0.061c0,0.035,0.017,0.061,0.052,0.076
			c0.034,0.016,0.085,0.024,0.15,0.024c0.103-0.002,0.216-0.005,0.337-0.011c0.123-0.006,0.243-0.01,0.361-0.01
			c0.123-0.005,0.236-0.008,0.338-0.008c0.102-0.002,0.182-0.002,0.238-0.002c0.15,0,0.309,0.002,0.478,0.006
			c0.169,0.006,0.359,0.014,0.575,0.024c0.217,0.005,0.467,0.012,0.754,0.019s0.619,0.012,0.997,0.012
			c0.126,0.002,0.226-0.002,0.297-0.01c0.071-0.009,0.125-0.031,0.161-0.068c0.038-0.037,0.066-0.1,0.088-0.186
			c0.014-0.052,0.027-0.129,0.043-0.227c0.015-0.1,0.028-0.208,0.042-0.322c0.013-0.117,0.024-0.227,0.034-0.33
			c0.008-0.102,0.013-0.184,0.013-0.244c0.002-0.052-0.001-0.094-0.01-0.128c-0.009-0.036-0.032-0.052-0.071-0.054
			c-0.033,0-0.059,0.01-0.074,0.033s-0.028,0.062-0.037,0.119c-0.033,0.205-0.086,0.365-0.154,0.483
			c-0.071,0.118-0.171,0.206-0.301,0.265c-0.09,0.041-0.19,0.067-0.305,0.086c-0.113,0.018-0.229,0.027-0.342,0.03
			c-0.112,0.005-0.215,0.005-0.305,0.005c-0.256,0.002-0.464-0.01-0.623-0.033c-0.158-0.025-0.279-0.068-0.363-0.131
			c-0.084-0.061-0.143-0.147-0.176-0.259c-0.032-0.111-0.049-0.253-0.053-0.427c-0.001-0.061-0.003-0.142-0.003-0.243
			c-0.001-0.101-0.001-0.214-0.001-0.337c0.001-0.123,0.001-0.246,0.001-0.373c0.002-0.125,0.002-0.241,0.002-0.35
			c0.001-0.107,0.001-0.195,0.001-0.266v-0.8c0-0.03,0.004-0.056,0.012-0.074c0.009-0.017,0.024-0.026,0.049-0.026
			c0.051,0,0.125,0,0.225,0.001c0.1,0,0.209,0.002,0.331,0.004c0.123,0.001,0.243,0.003,0.362,0.005
			c0.12,0.004,0.229,0.005,0.32,0.008c0.094,0.004,0.158,0.008,0.199,0.012c0.125,0.014,0.225,0.039,0.302,0.076
			c0.077,0.035,0.137,0.082,0.179,0.135c0.043,0.055,0.07,0.117,0.086,0.184s0.023,0.133,0.029,0.195
			c0.004,0.062,0.008,0.119,0.012,0.17c0,0.025,0.007,0.047,0.019,0.064c0.013,0.016,0.037,0.026,0.072,0.026
			c0.03-0.001,0.051-0.012,0.063-0.032c0.014-0.02,0.021-0.045,0.024-0.074c0.003-0.03,0.003-0.059,0.003-0.086
			c0-0.019,0.002-0.056,0.006-0.107c0.003-0.053,0.006-0.113,0.012-0.183c0.003-0.069,0.008-0.138,0.014-0.208
			c0.003-0.066,0.006-0.127,0.01-0.18c0.014-0.17,0.027-0.307,0.039-0.408s0.021-0.178,0.029-0.227
			c0.009-0.051,0.012-0.086,0.012-0.104c0-0.031-0.006-0.051-0.02-0.064c-0.014-0.012-0.03-0.018-0.051-0.018
			c-0.023,0-0.049,0.012-0.072,0.036c-0.025,0.023-0.055,0.056-0.09,0.097c-0.045,0.049-0.105,0.084-0.186,0.105
			c-0.078,0.021-0.178,0.037-0.3,0.045c-0.049,0.004-0.128,0.008-0.236,0.011c-0.108,0.001-0.232,0.005-0.369,0.005
			c-0.138,0.002-0.276,0.004-0.415,0.004c-0.137,0.002-0.26,0.002-0.367,0.002c-0.106,0-0.185,0-0.231,0
			c-0.03,0-0.049-0.011-0.06-0.029c-0.008-0.02-0.013-0.047-0.012-0.082v-2.561c0-0.035,0.006-0.061,0.018-0.078
			c0.01-0.017,0.028-0.023,0.054-0.023c0.042,0,0.112,0,0.211,0.002c0.098,0.002,0.209,0.003,0.332,0.006
			c0.125,0.002,0.249,0.006,0.372,0.01c0.124,0.002,0.232,0.006,0.326,0.012c0.095,0.003,0.158,0.006,0.195,0.012
			c0.168,0.02,0.295,0.047,0.385,0.08c0.092,0.034,0.156,0.074,0.199,0.121c0.043,0.048,0.074,0.102,0.095,0.162
			c0.017,0.041,0.03,0.086,0.038,0.134c0.009,0.046,0.016,0.091,0.018,0.132c0.003,0.042,0.005,0.074,0.005,0.1
			c0,0.045,0.007,0.08,0.019,0.104c0.014,0.023,0.037,0.037,0.072,0.037c0.035-0.001,0.059-0.014,0.074-0.037
			c0.014-0.023,0.023-0.047,0.027-0.074c0.005-0.031,0.01-0.078,0.016-0.141c0.004-0.062,0.01-0.129,0.013-0.201
			c0.005-0.07,0.009-0.137,0.014-0.195c0.003-0.06,0.007-0.104,0.009-0.131c0.01-0.152,0.021-0.272,0.033-0.361
			c0.014-0.088,0.023-0.154,0.034-0.197c0.009-0.045,0.013-0.076,0.013-0.098c0-0.025-0.003-0.048-0.012-0.064
			c-0.008-0.018-0.023-0.027-0.049-0.027c-0.025,0.002-0.053,0.007-0.08,0.018c-0.029,0.01-0.057,0.016-0.082,0.023
			c-0.041,0.01-0.1,0.02-0.175,0.029c-0.075,0.011-0.162,0.021-0.26,0.031c-0.034,0.002-0.111,0.003-0.231,0.003
			c-0.119,0.001-0.266,0.003-0.438,0.003c-0.173,0.002-0.355,0.002-0.547,0.002c-0.192,0-0.378,0.002-0.557,0.002s-0.336,0-0.471,0
			s-0.229,0-0.287,0c-0.072,0-0.163-0.002-0.273-0.007c-0.109-0.003-0.23-0.009-0.363-0.013c-0.129,0-0.262-0.002-0.402-0.006
			s-0.279-0.005-0.418-0.005c-0.076,0-0.131,0.005-0.168,0.019c-0.036,0.014-0.055,0.037-0.055,0.072
			c0,0.033,0.016,0.059,0.044,0.072c0.03,0.012,0.073,0.02,0.128,0.02c0.074,0,0.146,0.001,0.221,0.006
			c0.073,0.006,0.133,0.014,0.174,0.023c0.11,0.023,0.196,0.058,0.257,0.105c0.061,0.047,0.104,0.107,0.132,0.186
			c0.025,0.077,0.042,0.172,0.047,0.286c0.004,0.062,0.007,0.13,0.01,0.199c0.002,0.071,0.006,0.155,0.008,0.253
			c0,0.098,0.001,0.221,0.001,0.367c0.002,0.146,0.002,0.328,0.002,0.543c0,0.217,0,0.479,0,0.783V44.924L174.534,44.924z
			 M183.965,44.924c0,0.328,0,0.633-0.001,0.914c-0.002,0.279-0.007,0.529-0.014,0.748c-0.007,0.22-0.019,0.4-0.035,0.544
			c-0.014,0.146-0.04,0.263-0.083,0.347c-0.042,0.086-0.111,0.139-0.211,0.159c-0.045,0.01-0.098,0.021-0.158,0.028
			s-0.13,0.012-0.205,0.012c-0.06,0-0.102,0.007-0.127,0.021c-0.023,0.014-0.035,0.035-0.035,0.061c0,0.035,0.017,0.061,0.052,0.076
			c0.034,0.016,0.085,0.024,0.149,0.024c0.104,0,0.217-0.002,0.338-0.005c0.121-0.004,0.243-0.008,0.364-0.01
			c0.122-0.004,0.233-0.008,0.334-0.011c0.1-0.003,0.181-0.005,0.239-0.005c0.094,0,0.222,0.004,0.383,0.008
			c0.162,0.006,0.346,0.009,0.551,0.014c0.205,0.006,0.422,0.009,0.646,0.009c0.058,0,0.103-0.009,0.138-0.024
			c0.036-0.016,0.053-0.041,0.055-0.076c0-0.025-0.014-0.047-0.039-0.061c-0.027-0.015-0.067-0.021-0.123-0.021
			c-0.053,0-0.107-0.002-0.17-0.004c-0.061-0.006-0.121-0.012-0.183-0.016c-0.061-0.008-0.114-0.014-0.163-0.021
			c-0.1-0.014-0.178-0.042-0.233-0.086s-0.096-0.1-0.121-0.169c-0.025-0.068-0.042-0.15-0.051-0.241
			c-0.013-0.146-0.022-0.329-0.028-0.55s-0.009-0.471-0.01-0.752c-0.002-0.281-0.002-0.586-0.002-0.914v-1.781
			c0-0.305,0-0.566,0-0.783c0-0.215,0-0.397,0.002-0.545c0-0.146,0.001-0.268,0.002-0.365c0-0.098,0.004-0.182,0.006-0.253
			c0.004-0.069,0.007-0.137,0.01-0.199c0.008-0.175,0.039-0.31,0.094-0.403c0.053-0.091,0.148-0.15,0.281-0.174
			c0.059-0.01,0.113-0.018,0.158-0.023c0.047-0.005,0.096-0.006,0.145-0.006c0.051,0,0.092-0.008,0.119-0.021
			c0.028-0.015,0.043-0.041,0.043-0.08c0-0.031-0.02-0.051-0.057-0.064c-0.037-0.012-0.09-0.017-0.155-0.017
			c-0.099,0-0.204,0.001-0.319,0.005c-0.116,0.002-0.23,0.007-0.348,0.01c-0.115,0.004-0.224,0.008-0.322,0.01
			c-0.099,0.004-0.182,0.006-0.246,0.006c-0.074,0-0.166-0.002-0.274-0.006c-0.109-0.002-0.224-0.006-0.349-0.01
			c-0.123-0.003-0.245-0.008-0.365-0.01c-0.119-0.004-0.229-0.005-0.326-0.005c-0.082,0-0.143,0.005-0.183,0.017
			c-0.04,0.014-0.061,0.033-0.061,0.064c0,0.039,0.015,0.065,0.044,0.08c0.027,0.014,0.067,0.021,0.117,0.021
			c0.061,0,0.123,0.001,0.186,0.008s0.123,0.018,0.18,0.031c0.111,0.024,0.193,0.082,0.248,0.174s0.087,0.222,0.096,0.394
			c0.004,0.062,0.007,0.13,0.01,0.199c0.002,0.071,0.006,0.155,0.007,0.253c0,0.098,0.002,0.219,0.002,0.365
			c0.001,0.147,0.001,0.33,0.001,0.545c0,0.217,0,0.479,0,0.783V44.924L183.965,44.924z M188.995,42.262h0.03
			c0.037,0.041,0.109,0.117,0.214,0.231c0.106,0.112,0.238,0.255,0.396,0.423c0.156,0.171,0.334,0.356,0.527,0.562
			c0.193,0.203,0.4,0.418,0.615,0.641c0.217,0.221,0.436,0.441,0.656,0.662c0.266,0.264,0.54,0.537,0.821,0.82
			c0.282,0.281,0.557,0.561,0.827,0.832c0.27,0.271,0.521,0.521,0.75,0.748c0.229,0.23,0.426,0.42,0.587,0.576
			c0.056,0.057,0.113,0.109,0.172,0.152c0.06,0.044,0.116,0.068,0.173,0.07c0.045,0,0.078-0.024,0.1-0.075
			c0.021-0.049,0.031-0.13,0.031-0.239l0.111-6.385c0.004-0.188,0.016-0.342,0.039-0.458s0.061-0.207,0.114-0.27
			c0.054-0.064,0.128-0.108,0.222-0.134c0.059-0.015,0.112-0.023,0.16-0.026c0.045-0.003,0.094-0.005,0.143-0.003
			c0.121,0,0.183-0.031,0.183-0.092c-0.002-0.039-0.024-0.064-0.067-0.076s-0.098-0.017-0.166-0.015
			c-0.165,0-0.316,0.003-0.451,0.009c-0.137,0.003-0.25,0.008-0.343,0.014c-0.093,0.004-0.159,0.008-0.197,0.008
			c-0.072,0-0.171-0.004-0.296-0.008c-0.122-0.006-0.264-0.011-0.424-0.014c-0.159-0.006-0.328-0.009-0.505-0.009
			c-0.077-0.002-0.14,0.003-0.188,0.015c-0.047,0.012-0.072,0.037-0.074,0.076c0,0.03,0.012,0.053,0.035,0.067
			c0.025,0.015,0.067,0.024,0.127,0.024c0.049,0,0.104,0,0.168,0.001c0.064,0.002,0.129,0.007,0.192,0.015
			c0.065,0.011,0.124,0.023,0.176,0.045c0.081,0.031,0.145,0.078,0.195,0.143c0.049,0.064,0.086,0.157,0.11,0.279
			c0.023,0.123,0.035,0.284,0.038,0.488l0.101,4.544h-0.05c-0.037-0.036-0.113-0.114-0.231-0.236
			c-0.117-0.123-0.26-0.271-0.428-0.448c-0.169-0.176-0.346-0.363-0.535-0.561s-0.373-0.388-0.553-0.573s-0.34-0.349-0.479-0.489
			c-0.297-0.295-0.592-0.59-0.882-0.885s-0.564-0.576-0.824-0.844s-0.494-0.508-0.699-0.723c-0.205-0.213-0.373-0.389-0.5-0.521
			c-0.129-0.136-0.205-0.217-0.232-0.245c-0.084-0.093-0.152-0.169-0.209-0.226c-0.057-0.059-0.111-0.086-0.165-0.088
			c-0.049,0.002-0.084,0.033-0.103,0.096c-0.02,0.062-0.029,0.145-0.029,0.248l-0.09,5.961c-0.002,0.291-0.013,0.524-0.027,0.697
			c-0.018,0.176-0.047,0.307-0.092,0.393c-0.043,0.086-0.109,0.139-0.195,0.164c-0.072,0.021-0.15,0.034-0.23,0.041
			c-0.083,0.007-0.157,0.01-0.225,0.01c-0.051,0-0.092,0.006-0.118,0.02c-0.028,0.012-0.044,0.031-0.044,0.062
			c0.002,0.043,0.021,0.072,0.062,0.084c0.041,0.014,0.093,0.018,0.16,0.017c0.178,0,0.344-0.003,0.498-0.009
			c0.152-0.005,0.283-0.008,0.387-0.014c0.107-0.004,0.176-0.008,0.208-0.008c0.097,0.002,0.246,0.006,0.454,0.016
			c0.205,0.008,0.474,0.013,0.801,0.015c0.072,0,0.129-0.007,0.17-0.021c0.041-0.016,0.062-0.042,0.062-0.08
			c0-0.031-0.015-0.051-0.043-0.062c-0.031-0.014-0.073-0.02-0.129-0.02c-0.082,0.002-0.168-0.003-0.26-0.012
			c-0.091-0.01-0.179-0.028-0.266-0.059c-0.068-0.021-0.127-0.07-0.178-0.146c-0.051-0.078-0.092-0.194-0.121-0.352
			c-0.031-0.154-0.049-0.364-0.056-0.625L188.995,42.262L188.995,42.262z M201.645,48c0.164,0,0.33-0.005,0.501-0.014
			c0.17-0.01,0.337-0.023,0.501-0.042c0.163-0.019,0.315-0.044,0.455-0.073c0.141-0.027,0.262-0.063,0.364-0.104
			c0.058-0.021,0.101-0.047,0.134-0.07s0.059-0.052,0.077-0.087c0.019-0.034,0.037-0.079,0.052-0.137
			c0.021-0.071,0.041-0.157,0.062-0.259c0.021-0.104,0.041-0.213,0.06-0.328c0.021-0.115,0.037-0.227,0.052-0.332
			c0.016-0.106,0.027-0.197,0.035-0.273c0.01-0.076,0.014-0.128,0.014-0.153c0-0.042-0.004-0.077-0.018-0.106
			s-0.037-0.044-0.073-0.045c-0.038-0.002-0.067,0.012-0.084,0.04s-0.034,0.083-0.048,0.161c-0.014,0.062-0.037,0.134-0.068,0.211
			c-0.032,0.08-0.071,0.159-0.118,0.24c-0.048,0.079-0.1,0.151-0.157,0.217c-0.133,0.154-0.287,0.271-0.459,0.355
			c-0.174,0.082-0.374,0.138-0.602,0.168c-0.229,0.03-0.492,0.045-0.791,0.044c-0.229,0-0.464-0.034-0.707-0.1
			c-0.242-0.065-0.484-0.167-0.722-0.298c-0.237-0.134-0.462-0.301-0.673-0.5c-0.213-0.201-0.398-0.434-0.562-0.701
			c-0.162-0.268-0.29-0.566-0.384-0.9c-0.092-0.334-0.139-0.702-0.141-1.104c-0.002-0.329,0.023-0.65,0.077-0.965
			c0.054-0.315,0.148-0.612,0.283-0.895c0.137-0.279,0.325-0.534,0.57-0.762c0.147-0.135,0.312-0.25,0.495-0.342
			c0.184-0.096,0.391-0.164,0.621-0.213c0.231-0.049,0.494-0.072,0.786-0.072c0.312,0.002,0.604,0.028,0.872,0.084
			c0.27,0.054,0.506,0.128,0.709,0.223c0.202,0.094,0.36,0.201,0.473,0.32c0.127,0.133,0.223,0.283,0.289,0.447
			c0.066,0.162,0.102,0.324,0.106,0.484c0,0.07,0.007,0.126,0.021,0.163c0.015,0.038,0.042,0.06,0.08,0.06
			c0.044,0,0.074-0.021,0.092-0.06c0.017-0.04,0.027-0.099,0.03-0.174c0.005-0.052,0.009-0.122,0.01-0.21
			c0.002-0.087,0.003-0.184,0.005-0.287c0.002-0.105,0.004-0.209,0.006-0.312c0.002-0.104,0.005-0.199,0.01-0.283
			c0.007-0.117,0.016-0.213,0.021-0.283c0.009-0.072,0.016-0.131,0.021-0.172c0.005-0.043,0.009-0.076,0.009-0.102
			c0-0.032-0.01-0.058-0.034-0.08c-0.023-0.023-0.062-0.037-0.118-0.041c-0.15-0.018-0.309-0.045-0.475-0.08
			c-0.166-0.033-0.345-0.065-0.537-0.092c-0.153-0.021-0.302-0.039-0.447-0.055c-0.146-0.016-0.3-0.027-0.463-0.035
			c-0.164-0.007-0.35-0.012-0.557-0.012c-0.502,0-0.947,0.043-1.338,0.13c-0.391,0.086-0.738,0.207-1.043,0.368
			c-0.305,0.16-0.576,0.35-0.817,0.574s-0.44,0.463-0.595,0.712c-0.156,0.249-0.275,0.501-0.361,0.751
			c-0.086,0.249-0.146,0.486-0.18,0.711c-0.033,0.225-0.05,0.426-0.049,0.6c-0.001,0.246,0.02,0.498,0.058,0.757
			c0.039,0.26,0.104,0.518,0.199,0.777c0.093,0.259,0.221,0.509,0.385,0.756c0.161,0.244,0.368,0.476,0.614,0.694
			c0.307,0.266,0.641,0.479,1.001,0.642c0.359,0.161,0.746,0.28,1.159,0.354C200.746,47.965,201.182,48.002,201.645,48L201.645,48z
			 M142.061,44.924c0,0.312,0,0.604-0.002,0.879c-0.002,0.273-0.007,0.518-0.014,0.734c-0.007,0.219-0.019,0.398-0.035,0.542
			c-0.012,0.098-0.029,0.187-0.049,0.265c-0.021,0.08-0.049,0.144-0.088,0.194c-0.037,0.05-0.09,0.084-0.157,0.098
			c-0.046,0.01-0.098,0.021-0.158,0.028c-0.062,0.008-0.13,0.012-0.206,0.012c-0.059,0-0.102,0.007-0.127,0.021
			c-0.023,0.014-0.035,0.035-0.035,0.061c0,0.035,0.018,0.061,0.053,0.076c0.033,0.016,0.084,0.024,0.15,0.024
			c0.103-0.002,0.215-0.005,0.337-0.011c0.123-0.006,0.243-0.01,0.36-0.01c0.123-0.005,0.236-0.008,0.338-0.008
			c0.103-0.002,0.182-0.002,0.239-0.002c0.15,0,0.309,0.002,0.478,0.006c0.169,0.006,0.359,0.014,0.575,0.024
			c0.216,0.005,0.468,0.012,0.754,0.019s0.619,0.012,0.997,0.012c0.126,0.002,0.226-0.002,0.297-0.01
			c0.07-0.009,0.125-0.031,0.162-0.068s0.064-0.1,0.087-0.186c0.014-0.052,0.026-0.129,0.042-0.227
			c0.016-0.1,0.029-0.208,0.043-0.322c0.014-0.117,0.025-0.227,0.033-0.33c0.008-0.102,0.014-0.184,0.014-0.244
			c0.002-0.052-0.002-0.094-0.01-0.128c-0.009-0.036-0.033-0.052-0.071-0.054c-0.034,0-0.06,0.01-0.074,0.033
			s-0.028,0.062-0.037,0.119c-0.034,0.205-0.086,0.365-0.155,0.483c-0.07,0.118-0.17,0.206-0.301,0.265
			c-0.089,0.041-0.189,0.067-0.305,0.086c-0.113,0.018-0.228,0.027-0.341,0.03c-0.112,0.005-0.216,0.005-0.306,0.005
			c-0.256,0.002-0.463-0.01-0.621-0.033c-0.159-0.025-0.281-0.068-0.365-0.131c-0.084-0.061-0.142-0.147-0.176-0.259
			c-0.031-0.111-0.049-0.253-0.052-0.427c-0.001-0.061-0.003-0.142-0.003-0.243c-0.002-0.101-0.002-0.214-0.002-0.337
			c0.002-0.123,0.002-0.246,0.002-0.373c0.002-0.125,0.002-0.241,0.002-0.35c0.001-0.107,0.001-0.195,0.001-0.266v-0.8
			c0-0.03,0.003-0.056,0.012-0.074c0.009-0.017,0.024-0.026,0.049-0.026c0.051,0,0.125,0,0.225,0.001c0.1,0,0.209,0.002,0.331,0.004
			c0.123,0.001,0.242,0.003,0.362,0.005c0.12,0.004,0.228,0.005,0.32,0.008c0.093,0.004,0.159,0.008,0.199,0.012
			c0.124,0.014,0.224,0.039,0.302,0.076c0.078,0.035,0.137,0.082,0.179,0.135c0.042,0.055,0.071,0.117,0.086,0.184
			s0.024,0.133,0.028,0.195c0.004,0.062,0.009,0.119,0.012,0.17c0,0.025,0.008,0.047,0.02,0.064
			c0.014,0.016,0.037,0.026,0.072,0.026c0.03-0.001,0.051-0.012,0.064-0.032c0.013-0.02,0.02-0.045,0.023-0.074
			c0.003-0.03,0.003-0.059,0.003-0.086c0-0.019,0.001-0.056,0.005-0.107c0.004-0.053,0.007-0.113,0.012-0.183
			c0.004-0.069,0.009-0.138,0.014-0.208c0.004-0.066,0.007-0.127,0.01-0.18c0.014-0.17,0.027-0.307,0.039-0.408
			s0.021-0.178,0.031-0.227c0.008-0.051,0.012-0.086,0.012-0.104c0-0.031-0.008-0.051-0.021-0.064
			c-0.013-0.012-0.029-0.018-0.05-0.018c-0.024,0-0.05,0.012-0.073,0.036c-0.025,0.023-0.053,0.056-0.089,0.097
			c-0.046,0.049-0.106,0.084-0.186,0.105s-0.179,0.037-0.3,0.045c-0.049,0.004-0.129,0.008-0.236,0.011
			c-0.107,0.001-0.232,0.005-0.369,0.005c-0.139,0.002-0.277,0.004-0.415,0.004c-0.137,0.002-0.26,0.002-0.368,0.002
			c-0.105,0-0.184,0-0.23,0c-0.031,0-0.049-0.011-0.06-0.029c-0.009-0.02-0.013-0.047-0.012-0.082v-2.561
			c0-0.035,0.005-0.061,0.017-0.078c0.011-0.017,0.029-0.023,0.055-0.023c0.042,0,0.113,0,0.211,0.002s0.209,0.003,0.332,0.006
			c0.125,0.002,0.25,0.006,0.373,0.01c0.123,0.002,0.23,0.006,0.325,0.012c0.095,0.003,0.158,0.006,0.195,0.012
			c0.167,0.02,0.296,0.047,0.385,0.08c0.091,0.034,0.157,0.074,0.198,0.121c0.043,0.048,0.074,0.102,0.096,0.162
			c0.016,0.041,0.029,0.086,0.038,0.134c0.009,0.046,0.015,0.091,0.017,0.132c0.004,0.042,0.006,0.074,0.006,0.1
			c0,0.045,0.006,0.08,0.018,0.104c0.014,0.023,0.037,0.037,0.073,0.037c0.035-0.001,0.06-0.014,0.074-0.037
			c0.013-0.023,0.023-0.047,0.026-0.074c0.006-0.031,0.011-0.078,0.016-0.141c0.006-0.062,0.01-0.129,0.014-0.201
			c0.005-0.07,0.008-0.137,0.014-0.195c0.003-0.06,0.006-0.104,0.008-0.131c0.01-0.152,0.021-0.272,0.034-0.361
			c0.013-0.088,0.023-0.154,0.034-0.197c0.008-0.045,0.014-0.076,0.014-0.098c0-0.025-0.004-0.048-0.013-0.064
			c-0.009-0.018-0.023-0.027-0.049-0.027c-0.025,0.002-0.052,0.007-0.081,0.018c-0.029,0.01-0.056,0.016-0.08,0.023
			c-0.043,0.01-0.1,0.02-0.176,0.029c-0.076,0.011-0.162,0.021-0.26,0.031c-0.034,0.002-0.111,0.003-0.231,0.003
			c-0.12,0.001-0.267,0.003-0.438,0.003c-0.172,0.002-0.354,0.002-0.547,0.002c-0.191,0-0.377,0.002-0.557,0.002
			c-0.178,0-0.335,0-0.471,0c-0.135,0-0.229,0-0.286,0c-0.072,0-0.163-0.002-0.272-0.007c-0.11-0.003-0.232-0.009-0.365-0.013
			c-0.128,0-0.262-0.002-0.401-0.006c-0.142-0.004-0.28-0.005-0.418-0.005c-0.076,0-0.132,0.005-0.169,0.019
			c-0.035,0.014-0.054,0.037-0.054,0.072c0,0.033,0.015,0.059,0.044,0.072c0.03,0.012,0.072,0.02,0.128,0.02
			c0.074,0,0.147,0.001,0.221,0.006c0.073,0.006,0.132,0.014,0.174,0.023c0.11,0.023,0.196,0.058,0.257,0.105
			c0.061,0.047,0.104,0.107,0.131,0.186c0.025,0.077,0.043,0.172,0.048,0.286c0.003,0.062,0.007,0.13,0.01,0.199
			c0.002,0.071,0.005,0.155,0.007,0.253c0,0.098,0.002,0.221,0.002,0.367c0.002,0.146,0.002,0.328,0.002,0.543
			c0,0.217,0,0.479,0,0.783V44.924L142.061,44.924z M149.377,48c0.178,0,0.361-0.012,0.543-0.035
			c0.182-0.025,0.363-0.068,0.543-0.129c0.179-0.061,0.354-0.145,0.522-0.251c0.241-0.16,0.433-0.339,0.57-0.538
			c0.14-0.197,0.237-0.401,0.297-0.61c0.058-0.211,0.086-0.415,0.085-0.612c0.001-0.24-0.029-0.465-0.088-0.68
			c-0.06-0.215-0.154-0.422-0.283-0.625c-0.131-0.205-0.301-0.41-0.514-0.619c-0.212-0.209-0.471-0.428-0.775-0.656l-0.283-0.213
			c-0.279-0.211-0.494-0.396-0.651-0.559s-0.267-0.313-0.331-0.455c-0.062-0.143-0.092-0.292-0.09-0.443
			c0.001-0.205,0.049-0.385,0.145-0.54c0.096-0.157,0.234-0.278,0.414-0.368c0.18-0.088,0.394-0.133,0.645-0.135
			c0.218,0.002,0.4,0.031,0.545,0.086c0.146,0.055,0.262,0.12,0.352,0.196c0.089,0.075,0.158,0.146,0.207,0.214
			c0.07,0.09,0.125,0.18,0.164,0.27c0.037,0.092,0.063,0.172,0.078,0.243c0.014,0.071,0.022,0.124,0.021,0.155
			c0,0.061,0.009,0.106,0.024,0.137c0.017,0.03,0.041,0.045,0.077,0.045c0.04,0.002,0.069-0.021,0.086-0.068
			c0.017-0.046,0.025-0.125,0.025-0.234c0-0.262,0.003-0.475,0.011-0.638c0.006-0.162,0.013-0.288,0.02-0.38
			c0.007-0.09,0.01-0.154,0.01-0.197c0-0.035-0.012-0.062-0.037-0.079c-0.023-0.019-0.059-0.032-0.104-0.042
			c-0.131-0.039-0.307-0.076-0.525-0.113c-0.221-0.037-0.494-0.055-0.821-0.059c-0.353,0.002-0.673,0.049-0.958,0.142
			c-0.287,0.095-0.533,0.226-0.738,0.396c-0.206,0.173-0.363,0.373-0.475,0.605c-0.109,0.233-0.165,0.49-0.166,0.77
			c-0.002,0.271,0.045,0.537,0.141,0.793c0.097,0.256,0.254,0.516,0.473,0.779c0.221,0.264,0.514,0.538,0.884,0.826l0.466,0.365
			c0.209,0.162,0.377,0.316,0.51,0.459c0.131,0.145,0.23,0.281,0.301,0.41c0.069,0.131,0.119,0.257,0.144,0.38
			c0.027,0.123,0.039,0.246,0.038,0.369c0,0.137-0.027,0.271-0.085,0.407c-0.056,0.135-0.14,0.26-0.251,0.371
			c-0.113,0.112-0.256,0.203-0.424,0.271c-0.17,0.066-0.369,0.102-0.598,0.104c-0.21,0.002-0.412-0.031-0.604-0.098
			c-0.191-0.067-0.362-0.176-0.509-0.326c-0.147-0.15-0.259-0.35-0.334-0.598c-0.025-0.088-0.048-0.179-0.064-0.273
			c-0.017-0.093-0.026-0.174-0.026-0.242c0.002-0.043-0.004-0.082-0.018-0.117c-0.012-0.035-0.041-0.054-0.084-0.055
			c-0.041,0.001-0.069,0.026-0.088,0.074c-0.019,0.049-0.028,0.11-0.033,0.188c-0.004,0.043-0.008,0.108-0.012,0.197
			c-0.006,0.09-0.012,0.196-0.018,0.318c-0.007,0.123-0.012,0.252-0.016,0.393c-0.004,0.139-0.006,0.277-0.006,0.418
			c0,0.072,0.003,0.131,0.014,0.172c0.01,0.043,0.028,0.076,0.057,0.102c0.027,0.025,0.068,0.049,0.121,0.07
			c0.217,0.096,0.442,0.164,0.682,0.205C148.82,47.981,149.085,48.002,149.377,48L149.377,48z M155.691,44.924
			c0,0.312,0,0.604-0.002,0.879c-0.002,0.273-0.007,0.518-0.014,0.734c-0.006,0.219-0.018,0.398-0.035,0.542
			c-0.014,0.148-0.041,0.273-0.083,0.372c-0.042,0.1-0.11,0.162-0.21,0.185c-0.047,0.01-0.098,0.021-0.159,0.028
			c-0.061,0.008-0.13,0.012-0.206,0.012c-0.059,0-0.101,0.007-0.126,0.021c-0.024,0.014-0.036,0.035-0.036,0.061
			c0,0.035,0.018,0.061,0.053,0.076c0.033,0.016,0.084,0.024,0.15,0.024c0.103,0,0.216-0.002,0.337-0.005
			c0.122-0.004,0.245-0.008,0.364-0.01c0.121-0.004,0.232-0.008,0.334-0.011c0.1-0.003,0.181-0.005,0.24-0.005
			c0.096,0,0.226,0.004,0.389,0.008c0.164,0.006,0.348,0.009,0.554,0.014c0.206,0.006,0.421,0.009,0.646,0.009
			c0.058,0,0.104-0.009,0.139-0.024s0.053-0.041,0.055-0.076c0-0.025-0.014-0.047-0.039-0.061c-0.027-0.015-0.068-0.021-0.123-0.021
			c-0.051,0-0.108-0.002-0.171-0.004c-0.061-0.006-0.122-0.012-0.183-0.016c-0.061-0.008-0.114-0.014-0.163-0.021
			c-0.1-0.014-0.177-0.046-0.231-0.097c-0.054-0.051-0.091-0.114-0.114-0.191c-0.023-0.076-0.04-0.164-0.049-0.258
			c-0.017-0.147-0.028-0.33-0.036-0.549c-0.006-0.219-0.012-0.465-0.013-0.738c-0.002-0.275-0.002-0.567-0.002-0.879v-4.149
			l1.275,0.03c0.298,0.009,0.532,0.041,0.704,0.098c0.174,0.057,0.297,0.127,0.371,0.209c0.074,0.085,0.115,0.171,0.119,0.26
			l0.01,0.111c0.005,0.074,0.014,0.127,0.028,0.158c0.017,0.031,0.044,0.045,0.083,0.045c0.03,0,0.051-0.016,0.064-0.045
			c0.014-0.026,0.021-0.066,0.026-0.117c0-0.069,0.002-0.157,0.005-0.265c0.004-0.108,0.007-0.224,0.01-0.341
			c0.004-0.119,0.008-0.23,0.011-0.332s0.005-0.181,0.005-0.236c0.002-0.076-0.004-0.13-0.014-0.164
			c-0.01-0.033-0.033-0.049-0.066-0.049c-0.021,0-0.051,0.006-0.096,0.014c-0.043,0.01-0.103,0.021-0.178,0.037
			c-0.074,0.01-0.171,0.021-0.285,0.032c-0.113,0.012-0.252,0.017-0.414,0.019h-4.007c-0.111,0-0.228-0.002-0.346-0.007
			c-0.118-0.003-0.234-0.011-0.348-0.017c-0.112-0.009-0.22-0.018-0.319-0.027c-0.082-0.008-0.15-0.021-0.207-0.041
			c-0.054-0.018-0.1-0.037-0.135-0.053c-0.035-0.018-0.066-0.025-0.093-0.027c-0.03,0-0.054,0.015-0.072,0.047
			c-0.019,0.031-0.034,0.08-0.049,0.145c-0.005,0.02-0.014,0.064-0.03,0.137c-0.016,0.072-0.032,0.16-0.053,0.262
			c-0.021,0.102-0.041,0.204-0.061,0.309c-0.021,0.105-0.035,0.199-0.049,0.281c-0.014,0.084-0.021,0.141-0.021,0.176
			c0,0.057,0.005,0.096,0.019,0.123c0.014,0.025,0.037,0.039,0.072,0.039c0.031,0,0.055-0.01,0.071-0.03s0.03-0.05,0.04-0.091
			c0.011-0.041,0.029-0.092,0.057-0.15c0.026-0.061,0.064-0.129,0.115-0.204c0.049-0.074,0.113-0.13,0.193-0.171
			c0.077-0.04,0.18-0.068,0.309-0.087c0.126-0.019,0.286-0.03,0.48-0.036l1.508-0.04V44.924L155.691,44.924z M163.584,45.277h-2.256
			c-0.025,0-0.044,0.006-0.058,0.018c-0.014,0.014-0.023,0.033-0.034,0.064l-0.546,1.386c-0.051,0.128-0.088,0.248-0.112,0.357
			c-0.026,0.11-0.039,0.197-0.039,0.26c-0.004,0.093,0.025,0.169,0.084,0.226c0.059,0.058,0.167,0.086,0.32,0.088h0.152
			c0.059,0,0.099,0.006,0.121,0.02c0.021,0.012,0.031,0.031,0.03,0.062c0,0.038-0.015,0.064-0.044,0.08
			c-0.03,0.014-0.072,0.021-0.129,0.021c-0.109,0-0.226-0.003-0.352-0.009c-0.125-0.005-0.25-0.008-0.375-0.014
			c-0.125-0.004-0.239-0.008-0.346-0.008c-0.028,0-0.082,0.002-0.16,0.005c-0.076,0.003-0.17,0.007-0.281,0.011
			c-0.109,0.002-0.23,0.006-0.359,0.01c-0.13,0.003-0.26,0.005-0.393,0.005c-0.066,0-0.115-0.007-0.146-0.021
			c-0.032-0.016-0.048-0.042-0.048-0.08c0-0.031,0.011-0.051,0.031-0.062c0.02-0.014,0.051-0.02,0.091-0.02
			c0.047,0,0.101-0.002,0.16-0.006s0.111-0.01,0.153-0.014c0.153-0.021,0.281-0.071,0.385-0.15c0.104-0.08,0.191-0.184,0.266-0.314
			c0.075-0.127,0.145-0.277,0.21-0.446l2.54-6.274c0.059-0.145,0.107-0.25,0.15-0.312c0.04-0.064,0.084-0.095,0.133-0.093
			c0.044-0.002,0.084,0.023,0.123,0.074c0.037,0.051,0.081,0.135,0.13,0.25c0.032,0.07,0.081,0.191,0.151,0.36
			s0.154,0.374,0.252,0.617c0.1,0.243,0.207,0.511,0.327,0.805c0.118,0.294,0.243,0.601,0.372,0.921
			c0.131,0.32,0.26,0.643,0.393,0.967c0.131,0.323,0.26,0.637,0.384,0.942c0.123,0.304,0.239,0.585,0.348,0.847
			s0.202,0.488,0.283,0.684c0.097,0.225,0.187,0.409,0.271,0.549c0.085,0.141,0.163,0.248,0.237,0.324s0.145,0.132,0.207,0.164
			c0.063,0.033,0.123,0.055,0.175,0.065c0.076,0.015,0.151,0.024,0.224,0.032c0.073,0.005,0.141,0.008,0.201,0.008
			c0.041-0.002,0.072,0.004,0.096,0.014c0.024,0.01,0.036,0.033,0.036,0.068c0.001,0.026-0.012,0.047-0.037,0.062
			c-0.026,0.015-0.074,0.025-0.142,0.03c-0.067,0.006-0.164,0.009-0.287,0.009s-0.283,0-0.477-0.002
			c-0.196,0-0.417-0.001-0.662-0.005c-0.244-0.002-0.502-0.007-0.773-0.014c-0.094-0.004-0.166-0.01-0.22-0.019
			c-0.056-0.009-0.083-0.028-0.085-0.062c0-0.031,0.011-0.051,0.035-0.064c0.021-0.014,0.057-0.021,0.107-0.027
			c0.039-0.01,0.068-0.037,0.091-0.078c0.023-0.041,0.023-0.092,0-0.154l-0.81-2.085c-0.01-0.025-0.023-0.044-0.039-0.054
			C163.63,45.283,163.609,45.277,163.584,45.277L163.584,45.277z M161.53,44.771h1.862c0.025,0,0.04-0.006,0.049-0.018
			c0.006-0.012,0.006-0.027,0.002-0.043l-0.911-2.489c-0.005-0.022-0.011-0.042-0.017-0.062c-0.009-0.018-0.02-0.027-0.034-0.029
			c-0.015,0.002-0.026,0.012-0.037,0.029c-0.011,0.02-0.019,0.039-0.023,0.062l-0.931,2.479c-0.006,0.02-0.006,0.037,0.002,0.051
			C161.496,44.766,161.51,44.771,161.53,44.771L161.53,44.771z M168.695,44.924c0,0.312,0,0.604-0.002,0.879
			c-0.002,0.273-0.007,0.518-0.014,0.734c-0.007,0.219-0.019,0.398-0.035,0.542c-0.014,0.148-0.041,0.273-0.083,0.372
			c-0.042,0.1-0.111,0.162-0.211,0.185c-0.046,0.01-0.098,0.021-0.158,0.028s-0.13,0.012-0.206,0.012
			c-0.059,0-0.102,0.007-0.127,0.021c-0.023,0.014-0.035,0.035-0.035,0.061c0,0.035,0.018,0.061,0.053,0.076
			c0.033,0.016,0.084,0.024,0.15,0.024c0.103,0,0.216-0.002,0.337-0.005c0.122-0.004,0.245-0.008,0.364-0.01
			c0.121-0.004,0.232-0.008,0.334-0.011c0.1-0.003,0.181-0.005,0.24-0.005c0.096,0,0.226,0.004,0.389,0.008
			c0.164,0.006,0.348,0.009,0.553,0.014c0.207,0.006,0.422,0.009,0.646,0.009c0.058,0,0.104-0.009,0.139-0.024
			s0.053-0.041,0.055-0.076c0-0.025-0.014-0.047-0.039-0.061c-0.027-0.015-0.068-0.021-0.123-0.021
			c-0.051,0-0.108-0.002-0.171-0.004c-0.061-0.006-0.122-0.012-0.183-0.016c-0.061-0.008-0.114-0.014-0.163-0.021
			c-0.1-0.014-0.177-0.046-0.231-0.097c-0.054-0.051-0.091-0.114-0.115-0.191c-0.023-0.076-0.039-0.164-0.048-0.258
			c-0.017-0.147-0.028-0.33-0.036-0.549c-0.006-0.219-0.012-0.465-0.014-0.738c-0.001-0.275-0.001-0.567-0.001-0.879v-4.149
			l1.274,0.03c0.299,0.009,0.533,0.041,0.705,0.098c0.174,0.057,0.297,0.127,0.371,0.209c0.074,0.085,0.115,0.171,0.119,0.26
			l0.01,0.111c0.005,0.074,0.014,0.127,0.028,0.158c0.017,0.031,0.044,0.045,0.083,0.045c0.03,0,0.051-0.016,0.064-0.045
			c0.013-0.026,0.021-0.066,0.026-0.117c0-0.069,0.001-0.157,0.005-0.265c0.004-0.108,0.007-0.224,0.01-0.341
			c0.004-0.119,0.008-0.23,0.011-0.332s0.005-0.181,0.005-0.236c0.002-0.076-0.004-0.13-0.014-0.164
			c-0.01-0.033-0.033-0.049-0.067-0.049c-0.021,0-0.05,0.006-0.095,0.014c-0.043,0.01-0.103,0.021-0.178,0.037
			c-0.074,0.01-0.171,0.021-0.285,0.032c-0.113,0.012-0.252,0.017-0.414,0.019h-4.007c-0.111,0-0.228-0.002-0.346-0.007
			c-0.118-0.003-0.235-0.011-0.348-0.017c-0.113-0.009-0.22-0.018-0.319-0.027c-0.082-0.008-0.151-0.021-0.207-0.041
			c-0.054-0.018-0.1-0.037-0.135-0.053c-0.035-0.018-0.066-0.025-0.093-0.027c-0.03,0-0.054,0.015-0.072,0.047
			c-0.019,0.031-0.034,0.08-0.05,0.145c-0.004,0.02-0.013,0.064-0.029,0.137c-0.016,0.072-0.032,0.16-0.053,0.262
			c-0.021,0.102-0.041,0.204-0.061,0.309c-0.021,0.105-0.035,0.199-0.049,0.281c-0.014,0.084-0.021,0.141-0.021,0.176
			c0,0.057,0.005,0.096,0.019,0.123c0.014,0.025,0.037,0.039,0.072,0.039c0.031,0,0.055-0.01,0.071-0.03s0.03-0.05,0.04-0.091
			s0.029-0.092,0.056-0.15c0.027-0.061,0.065-0.129,0.116-0.204c0.049-0.074,0.113-0.13,0.193-0.171
			c0.077-0.04,0.18-0.068,0.309-0.087c0.126-0.019,0.286-0.03,0.48-0.036l1.508-0.04V44.924L168.695,44.924z M111.781,44.924
			c0,0.312,0,0.604-0.001,0.879c-0.001,0.273-0.007,0.518-0.014,0.734c-0.007,0.219-0.019,0.398-0.035,0.542
			c-0.012,0.098-0.028,0.187-0.049,0.267c-0.021,0.078-0.049,0.143-0.088,0.192c-0.037,0.05-0.089,0.084-0.157,0.098
			c-0.045,0.01-0.098,0.021-0.158,0.028s-0.129,0.012-0.205,0.012c-0.06,0-0.102,0.007-0.127,0.021
			c-0.023,0.014-0.035,0.035-0.035,0.061c0,0.035,0.017,0.061,0.052,0.076c0.034,0.016,0.085,0.024,0.15,0.024
			c0.103,0,0.216-0.002,0.337-0.005c0.122-0.004,0.242-0.008,0.359-0.01c0.12-0.004,0.227-0.008,0.32-0.011
			c0.097-0.003,0.169-0.005,0.218-0.005c0.04,0,0.111,0.002,0.214,0.005c0.104,0.003,0.225,0.007,0.367,0.011
			c0.141,0.002,0.291,0.006,0.448,0.01c0.156,0.003,0.31,0.005,0.458,0.005c0.066,0,0.117-0.009,0.15-0.024
			c0.035-0.016,0.053-0.041,0.053-0.076c0-0.025-0.011-0.047-0.031-0.061c-0.02-0.015-0.051-0.021-0.09-0.021
			c-0.043,0-0.092-0.002-0.149-0.004c-0.058-0.006-0.118-0.012-0.179-0.016c-0.061-0.008-0.116-0.014-0.168-0.021
			c-0.1-0.014-0.178-0.048-0.231-0.098s-0.091-0.114-0.114-0.192c-0.023-0.08-0.041-0.169-0.049-0.267
			c-0.018-0.144-0.029-0.323-0.036-0.542c-0.007-0.217-0.012-0.463-0.013-0.738c-0.002-0.275-0.002-0.57-0.002-0.885v-0.143
			c0-0.029,0.006-0.051,0.021-0.064c0.014-0.012,0.033-0.016,0.059-0.016l0.881,0.02c0.035-0.002,0.069,0.004,0.1,0.012
			c0.03,0.01,0.057,0.029,0.082,0.059c0.034,0.039,0.086,0.108,0.156,0.205c0.068,0.096,0.149,0.211,0.242,0.342
			c0.093,0.132,0.192,0.271,0.295,0.418c0.104,0.146,0.208,0.291,0.309,0.432c0.188,0.26,0.359,0.486,0.516,0.68
			c0.154,0.195,0.303,0.359,0.444,0.493s0.283,0.237,0.427,0.315c0.086,0.047,0.178,0.084,0.271,0.113
			c0.096,0.028,0.207,0.049,0.338,0.061c0.129,0.012,0.286,0.019,0.474,0.019h0.962c0.061,0,0.107-0.007,0.141-0.021
			c0.034-0.016,0.051-0.042,0.051-0.08c0-0.025-0.01-0.047-0.03-0.061c-0.021-0.015-0.05-0.021-0.091-0.021s-0.084-0.002-0.13-0.006
			c-0.048-0.006-0.099-0.014-0.153-0.024c-0.039-0.007-0.094-0.019-0.162-0.036c-0.069-0.021-0.152-0.053-0.25-0.099
			c-0.096-0.048-0.205-0.114-0.327-0.202c-0.121-0.088-0.253-0.206-0.395-0.352c-0.297-0.314-0.624-0.694-0.983-1.141
			c-0.361-0.445-0.764-0.953-1.213-1.52c0.34-0.275,0.605-0.539,0.802-0.79c0.196-0.253,0.334-0.499,0.415-0.742
			c0.082-0.241,0.121-0.487,0.119-0.735c-0.002-0.17-0.023-0.328-0.067-0.476c-0.044-0.146-0.101-0.28-0.17-0.399
			c-0.069-0.12-0.144-0.223-0.223-0.309s-0.155-0.154-0.228-0.203c-0.184-0.123-0.379-0.215-0.584-0.279
			c-0.205-0.062-0.416-0.105-0.634-0.127c-0.216-0.02-0.431-0.03-0.645-0.028c-0.081,0-0.183,0.001-0.308,0.005
			c-0.123,0.002-0.254,0.007-0.395,0.01c-0.139,0.004-0.273,0.008-0.4,0.01c-0.129,0.004-0.236,0.006-0.324,0.006
			c-0.055,0-0.132-0.002-0.23-0.006c-0.1-0.002-0.213-0.006-0.342-0.01c-0.128-0.003-0.262-0.008-0.4-0.01
			c-0.141-0.004-0.279-0.005-0.414-0.005c-0.076-0.002-0.131,0.005-0.168,0.019c-0.036,0.014-0.055,0.037-0.055,0.072
			c0,0.033,0.016,0.059,0.044,0.072c0.03,0.012,0.073,0.02,0.128,0.02c0.074,0,0.146,0.001,0.221,0.006
			c0.073,0.006,0.133,0.014,0.174,0.023c0.11,0.022,0.196,0.058,0.257,0.105c0.061,0.045,0.104,0.107,0.132,0.186
			c0.025,0.076,0.042,0.172,0.047,0.286c0.004,0.062,0.007,0.13,0.01,0.199c0.002,0.071,0.006,0.155,0.008,0.253
			c0,0.098,0.001,0.221,0.001,0.365c0.001,0.147,0.001,0.33,0.001,0.545c0,0.217,0,0.479,0,0.783V44.924L111.781,44.924z
			 M112.977,40.865c0-0.04,0.004-0.07,0.018-0.094c0.014-0.022,0.037-0.037,0.073-0.047c0.05-0.016,0.121-0.025,0.21-0.033
			c0.092-0.006,0.199-0.008,0.326-0.008c0.121-0.002,0.252,0.017,0.39,0.054c0.14,0.037,0.276,0.1,0.413,0.185
			c0.137,0.084,0.26,0.198,0.373,0.34c0.111,0.144,0.202,0.318,0.27,0.529c0.067,0.209,0.102,0.457,0.104,0.744
			c-0.002,0.275-0.031,0.513-0.088,0.714c-0.057,0.198-0.13,0.364-0.22,0.495c-0.091,0.134-0.187,0.234-0.29,0.309
			c-0.059,0.045-0.118,0.078-0.177,0.104c-0.06,0.025-0.132,0.044-0.216,0.055c-0.084,0.01-0.192,0.015-0.326,0.015
			c-0.084,0-0.174-0.003-0.265-0.011c-0.091-0.006-0.181-0.018-0.267-0.033c-0.088-0.016-0.165-0.033-0.237-0.058
			c-0.036-0.013-0.06-0.034-0.073-0.061s-0.018-0.067-0.018-0.122V40.865L112.977,40.865z M119.422,44.924v-1.781
			c0-0.305,0-0.566,0-0.783c0-0.215,0-0.397-0.002-0.543c0-0.146-0.001-0.27-0.001-0.367c-0.001-0.098-0.005-0.182-0.007-0.253
			c-0.004-0.069-0.007-0.137-0.01-0.199c-0.006-0.114-0.021-0.209-0.047-0.286c-0.027-0.078-0.071-0.139-0.132-0.186
			c-0.062-0.048-0.147-0.082-0.257-0.105c-0.042-0.01-0.102-0.018-0.174-0.023c-0.074-0.005-0.146-0.006-0.221-0.006
			c-0.056,0-0.098-0.008-0.128-0.02c-0.028-0.014-0.044-0.039-0.044-0.072c0-0.035,0.019-0.059,0.054-0.072
			c0.037-0.014,0.093-0.019,0.169-0.019c0.139,0,0.276,0.001,0.418,0.005c0.141,0.004,0.273,0.006,0.402,0.006
			c0.133,0.004,0.254,0.01,0.363,0.013c0.109,0.005,0.201,0.007,0.273,0.007c0.058,0,0.152,0,0.287,0s0.291,0,0.471,0
			c0.178,0,0.363-0.002,0.557-0.002c0.191,0,0.374,0,0.546-0.002c0.172,0,0.319-0.002,0.438-0.003c0.12,0,0.197-0.001,0.23-0.003
			c0.099-0.01,0.185-0.021,0.26-0.031c0.076-0.01,0.134-0.02,0.176-0.029c0.025-0.008,0.053-0.014,0.082-0.023
			c0.027-0.011,0.055-0.016,0.08-0.018c0.025,0,0.041,0.01,0.049,0.027c0.009,0.017,0.012,0.039,0.012,0.064
			c0,0.021-0.005,0.053-0.014,0.098c-0.01,0.043-0.02,0.109-0.033,0.197c-0.012,0.089-0.023,0.209-0.033,0.361
			c-0.002,0.027-0.006,0.071-0.009,0.131c-0.005,0.059-0.009,0.125-0.014,0.195c-0.003,0.072-0.009,0.139-0.014,0.201
			s-0.01,0.109-0.015,0.141c-0.004,0.027-0.014,0.051-0.027,0.074c-0.016,0.023-0.039,0.036-0.074,0.037
			c-0.035,0-0.059-0.014-0.072-0.037c-0.012-0.023-0.019-0.059-0.019-0.104c0-0.025-0.002-0.058-0.005-0.1
			c-0.002-0.041-0.009-0.086-0.018-0.132c-0.008-0.048-0.021-0.093-0.039-0.134c-0.02-0.061-0.052-0.114-0.094-0.162
			c-0.043-0.047-0.108-0.087-0.199-0.121c-0.09-0.033-0.218-0.061-0.385-0.08c-0.037-0.006-0.102-0.009-0.195-0.012
			c-0.095-0.006-0.203-0.01-0.326-0.012c-0.123-0.004-0.247-0.008-0.372-0.01c-0.123-0.003-0.234-0.004-0.333-0.006
			c-0.098-0.002-0.168-0.002-0.211-0.002c-0.025,0-0.043,0.007-0.053,0.023c-0.012,0.018-0.018,0.043-0.018,0.078v2.561
			c-0.002,0.035,0.004,0.062,0.012,0.082c0.01,0.019,0.029,0.029,0.059,0.029c0.048,0,0.125,0,0.232,0s0.23,0,0.367-0.002
			c0.139,0,0.276-0.002,0.414-0.004c0.137,0,0.262-0.004,0.37-0.005c0.108-0.003,0.187-0.007,0.235-0.011
			c0.122-0.008,0.222-0.023,0.301-0.045c0.08-0.021,0.141-0.057,0.186-0.105c0.035-0.041,0.064-0.073,0.09-0.097
			c0.023-0.024,0.049-0.036,0.072-0.036c0.02,0,0.037,0.006,0.051,0.018c0.014,0.014,0.02,0.033,0.02,0.064
			c0,0.018-0.003,0.053-0.012,0.104c-0.008,0.049-0.018,0.125-0.03,0.227c-0.012,0.102-0.024,0.238-0.038,0.408
			c-0.004,0.053-0.008,0.113-0.011,0.18c-0.005,0.07-0.01,0.139-0.013,0.208c-0.006,0.069-0.01,0.13-0.013,0.183
			c-0.003,0.052-0.005,0.089-0.005,0.107c0,0.027,0,0.056-0.004,0.086c-0.003,0.029-0.01,0.055-0.023,0.074
			c-0.013,0.021-0.033,0.031-0.064,0.032c-0.035,0-0.059-0.011-0.072-0.026c-0.012-0.018-0.018-0.039-0.018-0.064
			c-0.004-0.051-0.009-0.108-0.012-0.17c-0.006-0.062-0.014-0.129-0.029-0.195s-0.043-0.129-0.086-0.184
			c-0.042-0.053-0.102-0.1-0.179-0.135c-0.077-0.037-0.177-0.062-0.302-0.076c-0.041-0.004-0.106-0.008-0.199-0.012
			c-0.093-0.003-0.201-0.004-0.32-0.008c-0.12-0.002-0.239-0.004-0.363-0.005c-0.121-0.002-0.23-0.004-0.33-0.004
			c-0.1-0.001-0.174-0.001-0.225-0.001c-0.025,0-0.04,0.01-0.049,0.026c-0.008,0.019-0.012,0.044-0.012,0.074v0.8
			c0,0.07,0,0.158-0.002,0.266c0,0.108,0,0.225-0.001,0.35c0,0.127,0,0.25-0.002,0.373c0,0.123,0,0.236,0.002,0.337
			c0,0.102,0.001,0.183,0.003,0.243c0.004,0.174,0.021,0.315,0.053,0.427c0.033,0.111,0.091,0.198,0.176,0.259
			c0.084,0.062,0.205,0.105,0.363,0.131c0.159,0.023,0.366,0.035,0.623,0.033c0.089,0,0.191,0,0.305-0.005
			c0.113-0.003,0.229-0.013,0.341-0.03c0.114-0.019,0.216-0.045,0.306-0.086c0.129-0.059,0.229-0.146,0.3-0.265
			c0.069-0.118,0.122-0.278,0.155-0.483c0.008-0.057,0.021-0.096,0.037-0.119s0.041-0.033,0.074-0.033
			c0.039,0.002,0.062,0.018,0.07,0.054c0.009,0.034,0.012,0.076,0.011,0.128c0,0.061-0.005,0.143-0.014,0.244
			c-0.009,0.104-0.021,0.213-0.034,0.33c-0.014,0.114-0.026,0.223-0.041,0.322c-0.016,0.098-0.029,0.175-0.043,0.227
			c-0.021,0.086-0.051,0.148-0.088,0.186s-0.091,0.06-0.162,0.068c-0.07,0.008-0.17,0.012-0.297,0.01
			c-0.377,0-0.709-0.005-0.996-0.012s-0.538-0.014-0.754-0.019c-0.216-0.011-0.406-0.019-0.575-0.024
			c-0.169-0.004-0.327-0.006-0.478-0.006c-0.057,0-0.137,0-0.239,0.002c-0.101,0-0.214,0.003-0.337,0.008
			c-0.119,0-0.238,0.004-0.361,0.01c-0.121,0.006-0.234,0.009-0.338,0.011c-0.065,0-0.115-0.009-0.149-0.024
			c-0.035-0.016-0.052-0.041-0.052-0.076c0-0.025,0.012-0.047,0.035-0.061c0.025-0.015,0.066-0.021,0.126-0.021
			c0.076,0,0.146-0.004,0.206-0.012s0.113-0.019,0.158-0.028c0.067-0.014,0.12-0.048,0.156-0.098
			c0.039-0.051,0.068-0.114,0.088-0.194c0.021-0.078,0.037-0.167,0.049-0.265c0.018-0.144,0.029-0.323,0.036-0.542
			c0.007-0.217,0.012-0.461,0.013-0.734C119.422,45.527,119.422,45.235,119.422,44.924L119.422,44.924z M128.479,45.277
			c0.024,0,0.046,0.006,0.062,0.018c0.015,0.01,0.028,0.028,0.038,0.054l0.811,2.085c0.023,0.062,0.023,0.113,0,0.154
			c-0.022,0.041-0.053,0.068-0.092,0.078c-0.051,0.006-0.086,0.014-0.107,0.027c-0.023,0.014-0.034,0.033-0.034,0.064
			c0.002,0.033,0.028,0.053,0.085,0.062c0.054,0.009,0.126,0.015,0.219,0.019c0.271,0.007,0.529,0.012,0.774,0.014
			c0.245,0.004,0.466,0.005,0.661,0.005c0.193,0.002,0.354,0.002,0.477,0.002s0.22-0.003,0.287-0.009
			c0.068-0.005,0.115-0.016,0.143-0.03c0.025-0.015,0.038-0.035,0.037-0.062c0-0.035-0.012-0.059-0.036-0.068
			c-0.023-0.01-0.056-0.016-0.097-0.014c-0.061,0-0.127-0.003-0.2-0.008c-0.072-0.008-0.148-0.018-0.224-0.032
			c-0.053-0.011-0.111-0.032-0.176-0.065c-0.062-0.032-0.132-0.088-0.206-0.164s-0.153-0.184-0.237-0.324
			c-0.085-0.14-0.176-0.324-0.271-0.549c-0.082-0.195-0.176-0.422-0.283-0.684c-0.108-0.262-0.225-0.543-0.348-0.847
			c-0.125-0.306-0.254-0.619-0.385-0.942c-0.132-0.324-0.262-0.646-0.392-0.967s-0.255-0.627-0.372-0.921
			c-0.12-0.294-0.229-0.562-0.328-0.805c-0.098-0.243-0.182-0.448-0.251-0.617c-0.071-0.169-0.12-0.29-0.151-0.36
			c-0.049-0.115-0.094-0.199-0.131-0.25c-0.038-0.051-0.078-0.076-0.123-0.074c-0.049-0.002-0.092,0.028-0.133,0.093
			c-0.042,0.062-0.091,0.167-0.15,0.312l-2.539,6.274c-0.066,0.169-0.135,0.319-0.21,0.446c-0.074,0.131-0.163,0.234-0.267,0.314
			c-0.103,0.079-0.23,0.13-0.385,0.15c-0.041,0.004-0.094,0.01-0.152,0.014c-0.06,0.004-0.113,0.006-0.16,0.006
			c-0.041,0-0.071,0.006-0.092,0.02c-0.02,0.012-0.03,0.031-0.03,0.062c0,0.038,0.015,0.064,0.048,0.08
			c0.029,0.014,0.078,0.021,0.145,0.021c0.133,0,0.264-0.002,0.393-0.005c0.13-0.004,0.25-0.008,0.359-0.01
			c0.111-0.004,0.206-0.008,0.281-0.011c0.078-0.003,0.133-0.005,0.16-0.005c0.107,0,0.222,0.004,0.346,0.008
			c0.125,0.006,0.25,0.009,0.375,0.014c0.127,0.006,0.242,0.009,0.353,0.009c0.056,0,0.099-0.007,0.128-0.021
			c0.029-0.016,0.045-0.042,0.045-0.08c0.001-0.031-0.01-0.051-0.031-0.062c-0.021-0.014-0.062-0.02-0.121-0.02h-0.152
			c-0.152-0.002-0.262-0.03-0.32-0.088c-0.059-0.057-0.088-0.133-0.084-0.226c0-0.062,0.014-0.149,0.039-0.26
			c0.025-0.109,0.062-0.229,0.113-0.357l0.546-1.386c0.011-0.031,0.021-0.051,0.034-0.064c0.014-0.012,0.031-0.018,0.057-0.018
			H128.479L128.479,45.277z M126.426,44.771c-0.021,0-0.034-0.006-0.039-0.02c-0.008-0.014-0.008-0.031-0.002-0.051l0.932-2.479
			c0.004-0.022,0.013-0.042,0.023-0.062c0.01-0.018,0.021-0.027,0.037-0.029c0.015,0.002,0.025,0.012,0.033,0.029
			c0.007,0.02,0.012,0.039,0.017,0.062l0.911,2.489c0.005,0.016,0.005,0.031-0.002,0.043c-0.008,0.012-0.023,0.018-0.049,0.018
			H126.426L126.426,44.771z M134.167,43.143c0-0.305,0-0.566,0-0.783c0-0.215,0-0.397,0.001-0.545c0-0.145,0.002-0.268,0.004-0.365
			c0-0.098,0.004-0.182,0.005-0.253c0.003-0.069,0.007-0.137,0.011-0.199c0.006-0.175,0.038-0.31,0.092-0.403
			c0.055-0.091,0.148-0.15,0.282-0.174c0.062-0.01,0.13-0.018,0.2-0.023c0.072-0.005,0.137-0.006,0.194-0.006
			c0.061,0,0.106-0.008,0.137-0.02c0.03-0.014,0.046-0.039,0.046-0.072c0-0.035-0.02-0.059-0.055-0.072s-0.088-0.019-0.158-0.019
			c-0.102,0-0.216,0.001-0.348,0.005c-0.13,0.002-0.263,0.007-0.398,0.01c-0.133,0.004-0.256,0.008-0.369,0.01
			c-0.111,0.004-0.199,0.006-0.262,0.006c-0.068,0-0.158-0.002-0.264-0.006c-0.107-0.002-0.225-0.006-0.354-0.01
			c-0.128-0.003-0.258-0.008-0.389-0.01c-0.134-0.004-0.26-0.005-0.38-0.005c-0.076-0.002-0.132,0.005-0.169,0.019
			c-0.035,0.014-0.054,0.037-0.054,0.072c0,0.033,0.015,0.059,0.044,0.072c0.03,0.012,0.072,0.02,0.128,0.02
			c0.065,0,0.128,0.001,0.186,0.006c0.058,0.006,0.108,0.014,0.148,0.023c0.11,0.022,0.196,0.058,0.257,0.105
			c0.061,0.045,0.104,0.107,0.131,0.186c0.025,0.076,0.043,0.172,0.048,0.286c0.003,0.062,0.007,0.13,0.01,0.199
			c0.002,0.071,0.005,0.155,0.007,0.253c0,0.098,0.002,0.221,0.002,0.365c0.002,0.147,0.002,0.33,0.002,0.545
			c0,0.217,0,0.479,0,0.783v1.781c0,0.312,0,0.604-0.002,0.879c-0.002,0.273-0.007,0.518-0.014,0.734
			c-0.007,0.219-0.019,0.398-0.035,0.542c-0.012,0.098-0.029,0.187-0.049,0.265c-0.021,0.08-0.049,0.144-0.088,0.194
			c-0.037,0.05-0.09,0.084-0.157,0.098c-0.046,0.01-0.098,0.021-0.159,0.028c-0.061,0.008-0.129,0.012-0.205,0.012
			c-0.059,0-0.102,0.007-0.127,0.021c-0.023,0.014-0.035,0.035-0.035,0.061c0,0.035,0.018,0.061,0.053,0.076
			c0.033,0.016,0.084,0.024,0.15,0.024c0.102-0.002,0.215-0.005,0.337-0.011c0.123-0.006,0.243-0.01,0.36-0.01
			c0.123-0.005,0.236-0.008,0.338-0.008c0.103-0.002,0.182-0.002,0.239-0.002c0.139,0,0.271,0.002,0.403,0.004
			c0.131,0.001,0.265,0.004,0.401,0.01c0.135,0.004,0.28,0.01,0.431,0.017c0.224,0.005,0.475,0.012,0.752,0.019
			c0.276,0.007,0.597,0.012,0.957,0.012c0.131,0,0.234-0.004,0.314-0.012c0.078-0.007,0.139-0.021,0.179-0.043
			c0.042-0.018,0.074-0.047,0.095-0.082c0.02-0.035,0.037-0.08,0.051-0.137c0.016-0.061,0.031-0.135,0.047-0.223
			c0.016-0.09,0.029-0.182,0.04-0.281c0.014-0.1,0.025-0.193,0.034-0.287c0.01-0.091,0.017-0.17,0.021-0.238
			c0.006-0.064,0.009-0.11,0.009-0.135c0.001-0.061-0.003-0.104-0.014-0.131s-0.034-0.041-0.067-0.041
			c-0.039,0-0.067,0.016-0.082,0.043c-0.016,0.026-0.025,0.063-0.029,0.109c-0.007,0.065-0.023,0.137-0.051,0.214
			c-0.025,0.075-0.057,0.15-0.094,0.22c-0.037,0.07-0.078,0.128-0.119,0.174c-0.084,0.089-0.184,0.154-0.3,0.195
			s-0.248,0.065-0.395,0.074c-0.146,0.01-0.311,0.016-0.489,0.014c-0.26,0-0.471-0.009-0.631-0.023
			c-0.158-0.018-0.283-0.041-0.374-0.074s-0.165-0.074-0.22-0.125c-0.068-0.061-0.119-0.18-0.15-0.357
			c-0.029-0.178-0.047-0.417-0.053-0.719c-0.008-0.303-0.011-0.668-0.009-1.1V43.143L134.167,43.143z M73.803,48
			c0.164,0,0.331-0.005,0.5-0.014c0.17-0.01,0.338-0.023,0.501-0.042c0.164-0.019,0.315-0.044,0.456-0.073
			c0.14-0.027,0.262-0.063,0.364-0.104c0.058-0.021,0.101-0.047,0.133-0.07c0.034-0.023,0.059-0.052,0.078-0.087
			c0.019-0.034,0.037-0.079,0.052-0.137c0.021-0.071,0.041-0.157,0.062-0.259c0.02-0.104,0.041-0.213,0.059-0.328
			c0.02-0.115,0.037-0.227,0.052-0.332c0.015-0.106,0.027-0.197,0.035-0.273c0.009-0.076,0.014-0.128,0.014-0.153
			c0-0.042-0.005-0.077-0.019-0.106s-0.037-0.044-0.073-0.045c-0.039-0.002-0.067,0.012-0.084,0.04
			c-0.017,0.028-0.034,0.083-0.047,0.161c-0.013,0.062-0.037,0.134-0.069,0.211c-0.032,0.08-0.071,0.159-0.118,0.24
			c-0.047,0.079-0.1,0.151-0.157,0.217c-0.133,0.154-0.287,0.271-0.458,0.355c-0.174,0.082-0.375,0.138-0.602,0.168
			c-0.228,0.03-0.493,0.045-0.791,0.044c-0.228,0-0.464-0.034-0.707-0.1c-0.243-0.065-0.484-0.167-0.722-0.298
			c-0.238-0.134-0.462-0.301-0.673-0.5c-0.212-0.201-0.398-0.434-0.562-0.701c-0.162-0.268-0.29-0.566-0.383-0.9
			s-0.14-0.702-0.142-1.104c-0.001-0.329,0.024-0.65,0.078-0.965c0.054-0.315,0.148-0.612,0.283-0.895
			c0.137-0.279,0.325-0.534,0.57-0.762c0.147-0.135,0.312-0.25,0.496-0.342c0.182-0.096,0.389-0.164,0.621-0.213
			c0.231-0.049,0.494-0.072,0.786-0.072c0.312,0.002,0.604,0.028,0.872,0.084c0.27,0.054,0.506,0.128,0.708,0.223
			c0.202,0.094,0.361,0.201,0.474,0.32c0.126,0.133,0.223,0.283,0.288,0.447c0.066,0.162,0.102,0.324,0.106,0.484
			c0,0.07,0.006,0.126,0.02,0.163c0.015,0.038,0.042,0.06,0.081,0.06c0.044,0,0.074-0.021,0.091-0.06
			c0.017-0.04,0.027-0.099,0.03-0.174c0.005-0.052,0.008-0.122,0.01-0.21c0.002-0.087,0.003-0.184,0.005-0.287
			c0.001-0.105,0.003-0.209,0.005-0.312c0.001-0.104,0.005-0.199,0.01-0.283c0.007-0.117,0.015-0.213,0.022-0.283
			c0.008-0.072,0.015-0.131,0.02-0.172c0.005-0.043,0.009-0.076,0.009-0.102c0-0.032-0.01-0.058-0.034-0.08
			c-0.024-0.023-0.062-0.037-0.118-0.041c-0.15-0.018-0.309-0.045-0.476-0.08c-0.166-0.033-0.344-0.065-0.537-0.092
			c-0.153-0.021-0.302-0.039-0.447-0.055c-0.147-0.016-0.3-0.027-0.464-0.035c-0.164-0.007-0.349-0.012-0.557-0.012
			c-0.501,0-0.946,0.043-1.337,0.13c-0.391,0.086-0.739,0.207-1.042,0.368c-0.306,0.16-0.577,0.35-0.818,0.574
			s-0.44,0.463-0.595,0.712s-0.275,0.501-0.361,0.751c-0.086,0.249-0.146,0.486-0.179,0.711s-0.05,0.426-0.048,0.6
			c-0.002,0.246,0.018,0.498,0.057,0.757c0.039,0.26,0.105,0.518,0.199,0.777c0.093,0.259,0.221,0.509,0.385,0.756
			c0.162,0.244,0.368,0.476,0.614,0.694c0.307,0.266,0.641,0.479,1.002,0.642c0.359,0.161,0.746,0.28,1.159,0.354
			C72.904,47.965,73.341,48.002,73.803,48L73.803,48z M78.276,44.924c0,0.328,0,0.633-0.001,0.914
			c-0.002,0.279-0.007,0.529-0.014,0.748c-0.006,0.22-0.019,0.4-0.035,0.544c-0.014,0.146-0.041,0.263-0.083,0.347
			c-0.042,0.086-0.111,0.139-0.21,0.159c-0.046,0.01-0.098,0.021-0.159,0.028c-0.061,0.008-0.13,0.012-0.206,0.012
			c-0.059,0-0.102,0.007-0.127,0.021c-0.023,0.014-0.035,0.035-0.035,0.061c0,0.035,0.017,0.061,0.052,0.076
			c0.034,0.016,0.084,0.024,0.15,0.024c0.103,0,0.216-0.002,0.337-0.005c0.122-0.004,0.243-0.008,0.364-0.01
			c0.122-0.004,0.233-0.008,0.334-0.011c0.1-0.003,0.181-0.005,0.24-0.005c0.093,0,0.221,0.004,0.383,0.008
			c0.162,0.006,0.346,0.009,0.55,0.014c0.206,0.006,0.421,0.009,0.646,0.009c0.057,0,0.103-0.009,0.138-0.024
			s0.052-0.041,0.054-0.076c0-0.025-0.014-0.047-0.039-0.061c-0.027-0.015-0.067-0.021-0.123-0.021c-0.052,0-0.108-0.002-0.17-0.004
			c-0.061-0.006-0.121-0.012-0.182-0.016c-0.061-0.008-0.115-0.014-0.164-0.021c-0.1-0.014-0.177-0.042-0.233-0.086
			s-0.096-0.1-0.121-0.169c-0.025-0.068-0.042-0.15-0.051-0.241c-0.013-0.146-0.022-0.329-0.029-0.55
			c-0.005-0.221-0.008-0.471-0.01-0.752c-0.002-0.281-0.002-0.586-0.002-0.914v-1.781c0-0.305,0-0.566,0-0.783
			c0-0.215,0-0.397,0.002-0.545c0-0.146,0.001-0.268,0.003-0.365c0-0.098,0.004-0.182,0.005-0.253
			c0.003-0.069,0.007-0.137,0.01-0.199c0.007-0.175,0.039-0.31,0.093-0.403c0.054-0.091,0.148-0.15,0.282-0.174
			c0.059-0.01,0.113-0.018,0.158-0.023c0.047-0.005,0.096-0.006,0.145-0.006c0.051,0,0.091-0.008,0.118-0.021
			c0.029-0.015,0.044-0.041,0.044-0.08c0-0.031-0.021-0.051-0.058-0.064c-0.037-0.012-0.089-0.017-0.155-0.017
			c-0.098,0-0.205,0.001-0.319,0.005c-0.117,0.002-0.231,0.007-0.348,0.01c-0.116,0.004-0.224,0.008-0.322,0.01
			c-0.099,0.004-0.182,0.006-0.246,0.006c-0.074,0-0.167-0.002-0.275-0.006c-0.11-0.002-0.224-0.006-0.349-0.01
			c-0.123-0.003-0.245-0.008-0.364-0.01c-0.12-0.004-0.229-0.005-0.327-0.005c-0.081,0-0.142,0.005-0.182,0.017
			c-0.041,0.014-0.061,0.033-0.061,0.064c0,0.039,0.015,0.065,0.043,0.08c0.027,0.014,0.067,0.021,0.118,0.021
			c0.061,0,0.123,0.001,0.186,0.008s0.123,0.018,0.179,0.031c0.111,0.024,0.194,0.082,0.248,0.174
			c0.056,0.092,0.087,0.222,0.096,0.394c0.003,0.062,0.007,0.13,0.01,0.199c0.001,0.071,0.005,0.155,0.006,0.253
			c0,0.098,0.002,0.219,0.002,0.365c0.001,0.147,0.001,0.33,0.001,0.545c0,0.217,0,0.479,0,0.783V44.924L78.276,44.924z
			 M85.511,45.277h-2.256c-0.025,0-0.044,0.006-0.058,0.018c-0.013,0.014-0.023,0.033-0.034,0.064l-0.546,1.386
			c-0.05,0.128-0.088,0.248-0.113,0.357c-0.025,0.11-0.039,0.197-0.039,0.26c-0.003,0.093,0.025,0.169,0.084,0.226
			c0.059,0.058,0.167,0.086,0.32,0.088h0.152c0.059,0,0.1,0.006,0.122,0.02c0.022,0.012,0.032,0.031,0.03,0.062
			c0,0.038-0.015,0.064-0.044,0.08c-0.03,0.014-0.072,0.021-0.128,0.021c-0.109,0-0.226-0.003-0.352-0.009
			c-0.125-0.005-0.25-0.008-0.375-0.014c-0.125-0.004-0.24-0.008-0.346-0.008c-0.029,0-0.083,0.002-0.16,0.005
			c-0.076,0.003-0.17,0.007-0.282,0.011c-0.11,0.002-0.229,0.006-0.359,0.01c-0.13,0.003-0.26,0.005-0.393,0.005
			c-0.065,0-0.115-0.007-0.145-0.021c-0.032-0.016-0.047-0.042-0.047-0.08c0-0.031,0.01-0.051,0.03-0.062
			c0.02-0.014,0.05-0.02,0.091-0.02c0.047,0,0.101-0.002,0.16-0.006s0.111-0.01,0.154-0.014c0.153-0.021,0.282-0.071,0.384-0.15
			c0.103-0.08,0.192-0.184,0.267-0.314c0.074-0.127,0.143-0.277,0.209-0.446l2.54-6.274c0.059-0.145,0.108-0.25,0.15-0.312
			c0.041-0.064,0.084-0.095,0.133-0.093c0.043-0.002,0.084,0.023,0.123,0.074c0.037,0.051,0.081,0.135,0.13,0.25
			c0.032,0.07,0.081,0.191,0.151,0.36c0.069,0.169,0.154,0.374,0.251,0.617c0.1,0.243,0.208,0.511,0.327,0.805
			c0.118,0.294,0.243,0.601,0.373,0.921s0.26,0.643,0.391,0.967c0.132,0.323,0.26,0.637,0.385,0.942
			c0.123,0.304,0.239,0.585,0.347,0.847s0.203,0.488,0.284,0.684c0.096,0.225,0.187,0.409,0.271,0.549
			c0.084,0.141,0.164,0.248,0.238,0.324c0.074,0.076,0.143,0.132,0.206,0.164c0.064,0.033,0.123,0.055,0.175,0.065
			c0.076,0.015,0.152,0.024,0.225,0.032c0.072,0.005,0.14,0.008,0.201,0.008c0.041-0.002,0.072,0.004,0.096,0.014
			c0.024,0.01,0.036,0.033,0.036,0.068c0.001,0.026-0.012,0.047-0.037,0.062c-0.027,0.015-0.074,0.025-0.142,0.03
			c-0.067,0.006-0.164,0.009-0.287,0.009c-0.124,0-0.283,0-0.478-0.002c-0.196,0-0.417-0.001-0.661-0.005
			c-0.245-0.002-0.502-0.007-0.774-0.014c-0.093-0.004-0.166-0.01-0.219-0.019c-0.056-0.009-0.083-0.028-0.084-0.062
			c0-0.031,0.01-0.051,0.034-0.064c0.022-0.014,0.058-0.021,0.108-0.027c0.039-0.01,0.069-0.037,0.091-0.078
			c0.023-0.041,0.023-0.092,0-0.154l-0.81-2.085c-0.01-0.025-0.023-0.044-0.039-0.054C85.557,45.283,85.537,45.277,85.511,45.277
			L85.511,45.277z M83.457,44.771h1.862c0.025,0,0.041-0.006,0.049-0.018c0.007-0.012,0.007-0.027,0.001-0.043l-0.911-2.489
			c-0.005-0.022-0.01-0.042-0.017-0.062c-0.009-0.018-0.019-0.027-0.034-0.029c-0.016,0.002-0.027,0.012-0.037,0.029
			c-0.01,0.02-0.019,0.039-0.024,0.062l-0.931,2.479c-0.005,0.02-0.005,0.037,0.001,0.051
			C83.423,44.766,83.437,44.771,83.457,44.771L83.457,44.771z M90.622,44.924c0,0.312,0,0.604-0.002,0.879
			c-0.001,0.273-0.006,0.518-0.013,0.734c-0.007,0.219-0.019,0.398-0.036,0.542c-0.014,0.148-0.041,0.273-0.083,0.372
			c-0.042,0.1-0.111,0.162-0.211,0.185c-0.045,0.01-0.098,0.021-0.159,0.028c-0.061,0.008-0.13,0.012-0.206,0.012
			c-0.059,0-0.101,0.007-0.126,0.021c-0.023,0.014-0.035,0.035-0.035,0.061c0,0.035,0.017,0.061,0.052,0.076
			c0.034,0.016,0.084,0.024,0.15,0.024c0.103,0,0.216-0.002,0.337-0.005c0.121-0.004,0.244-0.008,0.364-0.01
			c0.121-0.004,0.232-0.008,0.333-0.011c0.1-0.003,0.181-0.005,0.24-0.005c0.096,0,0.226,0.004,0.39,0.008
			c0.164,0.006,0.348,0.009,0.553,0.014c0.206,0.006,0.422,0.009,0.646,0.009c0.057,0,0.103-0.009,0.138-0.024
			c0.036-0.016,0.052-0.041,0.054-0.076c0-0.025-0.014-0.047-0.039-0.061c-0.027-0.015-0.067-0.021-0.123-0.021
			c-0.05,0-0.108-0.002-0.17-0.004c-0.061-0.006-0.121-0.012-0.182-0.016c-0.061-0.008-0.115-0.014-0.164-0.021
			c-0.1-0.014-0.177-0.046-0.231-0.097s-0.091-0.114-0.115-0.191c-0.023-0.076-0.041-0.164-0.049-0.258
			c-0.017-0.147-0.029-0.33-0.036-0.549s-0.012-0.465-0.013-0.738c-0.002-0.275-0.002-0.567-0.002-0.879v-4.149l1.275,0.03
			c0.298,0.009,0.533,0.041,0.705,0.098c0.174,0.057,0.297,0.127,0.371,0.209c0.074,0.085,0.115,0.171,0.118,0.26l0.01,0.111
			c0.005,0.074,0.014,0.127,0.029,0.158c0.017,0.031,0.044,0.045,0.083,0.045c0.03,0,0.051-0.016,0.064-0.045
			c0.014-0.026,0.022-0.066,0.027-0.117c0-0.069,0.002-0.157,0.005-0.265c0.003-0.108,0.007-0.224,0.01-0.341
			c0.003-0.119,0.006-0.23,0.01-0.332s0.005-0.181,0.005-0.236c0.001-0.076-0.003-0.13-0.014-0.164
			c-0.01-0.033-0.034-0.049-0.067-0.049c-0.02,0-0.051,0.006-0.095,0.014c-0.043,0.01-0.103,0.021-0.179,0.037
			c-0.074,0.01-0.17,0.021-0.285,0.032c-0.113,0.012-0.251,0.017-0.413,0.019h-4.007c-0.111,0-0.228-0.002-0.346-0.007
			c-0.118-0.003-0.234-0.011-0.348-0.017c-0.113-0.009-0.219-0.018-0.318-0.027c-0.083-0.008-0.152-0.021-0.208-0.041
			c-0.054-0.018-0.1-0.037-0.135-0.053c-0.035-0.018-0.065-0.025-0.093-0.027c-0.03,0-0.054,0.015-0.072,0.047
			c-0.019,0.031-0.034,0.08-0.049,0.145c-0.005,0.02-0.014,0.064-0.031,0.137c-0.015,0.072-0.032,0.16-0.052,0.262
			c-0.021,0.102-0.04,0.204-0.061,0.309c-0.02,0.105-0.035,0.199-0.049,0.281c-0.014,0.084-0.021,0.141-0.021,0.176
			c0,0.057,0.005,0.096,0.019,0.123c0.013,0.025,0.037,0.039,0.072,0.039c0.03,0,0.054-0.01,0.071-0.03s0.03-0.05,0.041-0.091
			s0.029-0.092,0.056-0.15c0.027-0.061,0.066-0.129,0.116-0.204c0.049-0.074,0.113-0.13,0.192-0.171
			c0.078-0.04,0.181-0.068,0.309-0.087c0.126-0.019,0.287-0.03,0.481-0.036l1.508-0.04V44.924L90.622,44.924z M96.461,44.924
			c0,0.312,0,0.604-0.001,0.879c-0.002,0.273-0.007,0.518-0.014,0.734c-0.007,0.219-0.019,0.398-0.036,0.542
			c-0.012,0.098-0.028,0.187-0.049,0.265c-0.02,0.08-0.049,0.144-0.087,0.194c-0.037,0.05-0.09,0.084-0.157,0.098
			c-0.045,0.01-0.098,0.021-0.158,0.028c-0.061,0.008-0.13,0.012-0.206,0.012c-0.059,0-0.101,0.007-0.126,0.021
			c-0.023,0.014-0.035,0.035-0.035,0.061c0,0.035,0.017,0.061,0.052,0.076c0.034,0.016,0.084,0.024,0.15,0.024
			c0.103-0.002,0.216-0.005,0.337-0.011c0.123-0.006,0.243-0.01,0.361-0.01c0.123-0.005,0.236-0.008,0.337-0.008
			c0.103-0.002,0.182-0.002,0.239-0.002c0.15,0,0.309,0.002,0.478,0.006c0.168,0.006,0.359,0.014,0.575,0.024
			c0.216,0.005,0.467,0.012,0.754,0.019s0.619,0.012,0.997,0.012c0.126,0.002,0.226-0.002,0.297-0.01
			c0.071-0.009,0.125-0.031,0.162-0.068s0.066-0.1,0.088-0.186c0.013-0.052,0.027-0.129,0.042-0.227
			c0.015-0.1,0.029-0.208,0.042-0.322c0.014-0.117,0.025-0.227,0.034-0.33c0.008-0.102,0.013-0.184,0.013-0.244
			c0.001-0.052-0.002-0.094-0.01-0.128c-0.008-0.036-0.032-0.052-0.071-0.054c-0.034,0-0.059,0.01-0.074,0.033
			s-0.028,0.062-0.037,0.119c-0.034,0.205-0.086,0.365-0.155,0.483c-0.071,0.118-0.17,0.206-0.3,0.265
			c-0.089,0.041-0.19,0.067-0.305,0.086c-0.113,0.018-0.228,0.027-0.34,0.03c-0.113,0.005-0.216,0.005-0.306,0.005
			c-0.256,0.002-0.464-0.01-0.622-0.033c-0.159-0.025-0.28-0.068-0.364-0.131c-0.084-0.061-0.142-0.147-0.175-0.259
			c-0.032-0.111-0.049-0.253-0.053-0.427c-0.001-0.061-0.003-0.142-0.003-0.243c-0.001-0.101-0.001-0.214-0.001-0.337
			c0.001-0.123,0.001-0.246,0.001-0.373c0.002-0.125,0.002-0.241,0.002-0.35c0.001-0.107,0.001-0.195,0.001-0.266v-0.8
			c0-0.03,0.004-0.056,0.012-0.074c0.009-0.017,0.024-0.026,0.049-0.026c0.05,0,0.125,0,0.224,0.001c0.1,0,0.209,0.002,0.331,0.004
			c0.123,0.001,0.243,0.003,0.363,0.005c0.12,0.004,0.228,0.005,0.32,0.008c0.093,0.004,0.159,0.008,0.199,0.012
			c0.125,0.014,0.224,0.039,0.302,0.076c0.078,0.035,0.137,0.082,0.179,0.135c0.042,0.055,0.071,0.117,0.086,0.184
			s0.024,0.133,0.029,0.195c0.003,0.062,0.008,0.119,0.012,0.17c0,0.025,0.007,0.047,0.019,0.064
			c0.014,0.016,0.037,0.026,0.073,0.026c0.03-0.001,0.05-0.012,0.064-0.032c0.014-0.02,0.02-0.045,0.023-0.074
			c0.003-0.03,0.003-0.059,0.003-0.086c0-0.019,0.002-0.056,0.005-0.107c0.003-0.053,0.006-0.113,0.012-0.183
			c0.003-0.069,0.008-0.138,0.013-0.208c0.003-0.066,0.007-0.127,0.01-0.18c0.014-0.17,0.027-0.307,0.039-0.408
			c0.012-0.102,0.022-0.178,0.031-0.227c0.008-0.051,0.012-0.086,0.012-0.104c0-0.031-0.007-0.051-0.02-0.064
			c-0.014-0.012-0.03-0.018-0.051-0.018c-0.024,0-0.049,0.012-0.073,0.036c-0.025,0.023-0.054,0.056-0.089,0.097
			c-0.045,0.049-0.106,0.084-0.186,0.105s-0.179,0.037-0.3,0.045c-0.048,0.004-0.128,0.008-0.236,0.011
			c-0.108,0.001-0.233,0.005-0.37,0.005c-0.138,0.002-0.276,0.004-0.415,0.004c-0.137,0.002-0.26,0.002-0.368,0.002
			c-0.106,0-0.184,0-0.231,0c-0.031,0-0.049-0.011-0.06-0.029c-0.008-0.02-0.013-0.047-0.012-0.082v-2.561
			c0-0.035,0.005-0.061,0.017-0.078c0.01-0.017,0.029-0.023,0.054-0.023c0.042,0,0.113,0,0.21,0.002s0.209,0.003,0.333,0.006
			c0.125,0.002,0.25,0.006,0.373,0.01c0.123,0.002,0.231,0.006,0.326,0.012c0.094,0.003,0.158,0.006,0.196,0.012
			c0.167,0.02,0.295,0.047,0.384,0.08c0.091,0.034,0.157,0.074,0.199,0.121c0.042,0.048,0.074,0.102,0.095,0.162
			c0.017,0.041,0.03,0.086,0.039,0.134c0.008,0.046,0.015,0.091,0.017,0.132c0.003,0.042,0.005,0.074,0.005,0.1
			c0,0.045,0.007,0.08,0.019,0.104c0.014,0.023,0.037,0.037,0.073,0.037c0.035-0.001,0.059-0.014,0.074-0.037
			c0.013-0.023,0.023-0.047,0.027-0.074c0.005-0.031,0.01-0.078,0.015-0.141c0.005-0.062,0.01-0.129,0.014-0.201
			c0.005-0.07,0.008-0.137,0.013-0.195c0.003-0.06,0.007-0.104,0.009-0.131c0.01-0.152,0.021-0.272,0.034-0.361
			c0.013-0.088,0.023-0.154,0.034-0.197c0.008-0.045,0.014-0.076,0.014-0.098c0-0.025-0.003-0.048-0.012-0.064
			c-0.008-0.018-0.023-0.027-0.049-0.027c-0.025,0.002-0.052,0.007-0.081,0.018c-0.029,0.01-0.056,0.016-0.081,0.023
			c-0.042,0.01-0.1,0.02-0.175,0.029c-0.076,0.011-0.162,0.021-0.26,0.031c-0.034,0.002-0.111,0.003-0.231,0.003
			c-0.12,0.001-0.267,0.003-0.438,0.003c-0.172,0.002-0.354,0.002-0.546,0.002s-0.378,0.002-0.557,0.002s-0.335,0-0.471,0
			c-0.135,0-0.229,0-0.287,0c-0.072,0-0.164-0.002-0.273-0.007c-0.11-0.003-0.231-0.009-0.365-0.013
			c-0.128,0-0.261-0.002-0.401-0.006c-0.142-0.004-0.28-0.005-0.418-0.005c-0.076,0-0.132,0.005-0.169,0.019
			c-0.035,0.014-0.054,0.037-0.054,0.072c0,0.033,0.015,0.059,0.043,0.072c0.031,0.012,0.073,0.02,0.128,0.02
			c0.074,0,0.147,0.001,0.221,0.006c0.072,0.006,0.131,0.014,0.173,0.023c0.11,0.023,0.196,0.058,0.257,0.105
			c0.061,0.047,0.104,0.107,0.131,0.186c0.025,0.077,0.042,0.172,0.047,0.286c0.003,0.062,0.006,0.13,0.01,0.199
			c0.002,0.071,0.005,0.155,0.007,0.253c0,0.098,0.002,0.221,0.002,0.367c0.001,0.146,0.001,0.328,0.001,0.543
			c0,0.217,0,0.479,0,0.783V44.924L96.461,44.924z M103.778,48c0.178,0,0.36-0.012,0.543-0.035c0.182-0.025,0.364-0.068,0.543-0.129
			s0.354-0.145,0.523-0.251c0.241-0.16,0.432-0.339,0.57-0.538c0.14-0.197,0.238-0.401,0.297-0.61
			c0.057-0.211,0.086-0.415,0.084-0.612c0.001-0.24-0.029-0.465-0.088-0.68s-0.154-0.422-0.283-0.625
			c-0.13-0.205-0.3-0.41-0.513-0.619s-0.471-0.428-0.776-0.656l-0.283-0.213c-0.278-0.211-0.495-0.396-0.651-0.559
			s-0.267-0.313-0.331-0.455c-0.062-0.143-0.093-0.292-0.091-0.443c0.002-0.205,0.049-0.385,0.146-0.54
			c0.096-0.157,0.234-0.278,0.415-0.368c0.179-0.088,0.393-0.133,0.645-0.135c0.218,0.002,0.4,0.031,0.544,0.086
			c0.146,0.055,0.262,0.12,0.351,0.196c0.089,0.075,0.159,0.146,0.208,0.214c0.071,0.09,0.125,0.18,0.164,0.27
			c0.037,0.092,0.064,0.172,0.079,0.243c0.014,0.071,0.022,0.124,0.021,0.155c0,0.061,0.008,0.106,0.023,0.137
			c0.017,0.03,0.042,0.045,0.078,0.045c0.041,0.002,0.069-0.021,0.086-0.068c0.017-0.046,0.025-0.125,0.025-0.234
			c0-0.262,0.003-0.475,0.01-0.638c0.007-0.162,0.013-0.288,0.02-0.38c0.007-0.09,0.01-0.154,0.01-0.197
			c0-0.035-0.012-0.062-0.037-0.079c-0.024-0.019-0.059-0.032-0.104-0.042c-0.13-0.039-0.305-0.076-0.525-0.113
			c-0.221-0.037-0.494-0.055-0.821-0.059c-0.353,0.002-0.673,0.049-0.958,0.142c-0.287,0.095-0.533,0.226-0.738,0.396
			c-0.206,0.173-0.363,0.373-0.474,0.605c-0.11,0.233-0.166,0.49-0.167,0.77c-0.001,0.271,0.045,0.537,0.142,0.793
			s0.253,0.516,0.472,0.779c0.221,0.264,0.515,0.538,0.884,0.826l0.465,0.365c0.209,0.162,0.378,0.316,0.51,0.459
			c0.131,0.145,0.231,0.281,0.302,0.41c0.069,0.131,0.118,0.257,0.143,0.38c0.027,0.123,0.039,0.246,0.038,0.369
			c0,0.137-0.027,0.271-0.084,0.407c-0.056,0.135-0.14,0.26-0.251,0.371c-0.113,0.112-0.254,0.203-0.423,0.271
			c-0.17,0.066-0.369,0.102-0.597,0.104c-0.21,0.002-0.413-0.031-0.604-0.098c-0.192-0.067-0.363-0.176-0.509-0.326
			c-0.147-0.15-0.258-0.35-0.334-0.598c-0.025-0.088-0.047-0.179-0.064-0.273c-0.017-0.093-0.027-0.174-0.027-0.242
			c0.002-0.043-0.003-0.082-0.017-0.117c-0.012-0.035-0.041-0.054-0.084-0.055c-0.041,0.001-0.069,0.026-0.087,0.074
			c-0.019,0.049-0.029,0.11-0.034,0.188c-0.003,0.043-0.007,0.108-0.012,0.197c-0.005,0.09-0.012,0.196-0.017,0.318
			c-0.007,0.123-0.012,0.252-0.016,0.393c-0.005,0.139-0.006,0.277-0.006,0.418c0,0.072,0.003,0.131,0.013,0.172
			c0.01,0.043,0.029,0.076,0.058,0.102c0.027,0.025,0.067,0.049,0.122,0.07c0.216,0.096,0.442,0.164,0.681,0.205
			C103.221,47.981,103.486,48.002,103.778,48L103.778,48z M13.47,44.771c-0.021,0-0.034-0.006-0.039-0.02
			c-0.006-0.014-0.006-0.031-0.001-0.051l0.931-2.479c0.005-0.022,0.013-0.042,0.023-0.062c0.01-0.018,0.022-0.027,0.037-0.029
			c0.015,0.002,0.025,0.012,0.034,0.029c0.007,0.02,0.012,0.039,0.017,0.062l0.911,2.489c0.005,0.016,0.005,0.031-0.002,0.043
			c-0.008,0.012-0.023,0.018-0.049,0.018H13.47L13.47,44.771z M20.402,42.262l0.111,4.221c0.006,0.261,0.025,0.471,0.056,0.625
			c0.03,0.157,0.071,0.273,0.121,0.352c0.051,0.076,0.11,0.125,0.177,0.146c0.088,0.03,0.175,0.049,0.267,0.059
			c0.091,0.009,0.177,0.014,0.26,0.012c0.056,0,0.098,0.006,0.128,0.02c0.029,0.012,0.044,0.031,0.044,0.062
			c0,0.038-0.022,0.064-0.062,0.08c-0.042,0.014-0.098,0.021-0.17,0.021c-0.327-0.002-0.595-0.007-0.801-0.015
			c-0.208-0.01-0.358-0.014-0.454-0.016c-0.032,0-0.101,0.004-0.207,0.008c-0.105,0.006-0.234,0.009-0.388,0.014
			c-0.153,0.006-0.32,0.009-0.498,0.009c-0.067,0.001-0.12-0.003-0.16-0.017c-0.041-0.012-0.061-0.041-0.062-0.084
			c0-0.031,0.015-0.051,0.044-0.062c0.027-0.014,0.067-0.02,0.118-0.02c0.067,0,0.142-0.003,0.224-0.01
			c0.081-0.007,0.159-0.021,0.231-0.041c0.086-0.025,0.152-0.078,0.196-0.164s0.074-0.217,0.091-0.393
			c0.015-0.173,0.025-0.406,0.027-0.697l0.091-5.961c0-0.104,0.008-0.186,0.029-0.248c0.019-0.062,0.054-0.094,0.103-0.096
			c0.054,0.002,0.108,0.029,0.165,0.088c0.056,0.057,0.125,0.133,0.209,0.226c0.027,0.028,0.103,0.109,0.231,0.245
			c0.128,0.133,0.295,0.309,0.501,0.521c0.204,0.215,0.438,0.455,0.698,0.723c0.259,0.268,0.535,0.549,0.825,0.844
			s0.585,0.59,0.882,0.885c0.14,0.141,0.3,0.304,0.479,0.489c0.181,0.186,0.365,0.376,0.553,0.573
			c0.189,0.197,0.366,0.385,0.535,0.561c0.169,0.177,0.311,0.325,0.428,0.448c0.119,0.122,0.194,0.2,0.231,0.236h0.05l-0.101-4.544
			c-0.003-0.204-0.015-0.365-0.039-0.488c-0.023-0.122-0.061-0.215-0.11-0.279c-0.051-0.064-0.115-0.111-0.195-0.143
			c-0.053-0.021-0.11-0.034-0.176-0.045c-0.064-0.008-0.128-0.013-0.192-0.015c-0.064-0.001-0.12-0.001-0.169-0.001
			c-0.059,0-0.101-0.01-0.126-0.024c-0.023-0.015-0.035-0.037-0.035-0.067c0.001-0.039,0.026-0.064,0.074-0.076
			c0.049-0.012,0.111-0.017,0.189-0.015c0.177,0,0.346,0.003,0.504,0.009c0.16,0.003,0.302,0.008,0.425,0.014
			c0.125,0.004,0.223,0.008,0.295,0.008c0.039,0,0.104-0.004,0.197-0.008c0.093-0.006,0.206-0.011,0.342-0.014
			c0.135-0.006,0.287-0.009,0.452-0.009c0.067-0.002,0.123,0.003,0.166,0.015c0.044,0.012,0.065,0.037,0.067,0.076
			c0,0.061-0.061,0.092-0.182,0.092c-0.049-0.002-0.098,0-0.144,0.003c-0.047,0.003-0.101,0.012-0.16,0.026
			c-0.093,0.025-0.167,0.069-0.221,0.134c-0.054,0.062-0.091,0.153-0.115,0.27c-0.024,0.116-0.036,0.271-0.039,0.458l-0.111,6.385
			c0,0.109-0.01,0.19-0.032,0.239c-0.02,0.051-0.054,0.075-0.099,0.075c-0.056-0.002-0.113-0.026-0.172-0.07
			c-0.06-0.043-0.117-0.096-0.172-0.152c-0.162-0.156-0.357-0.346-0.587-0.576c-0.229-0.228-0.48-0.477-0.75-0.748
			s-0.545-0.551-0.827-0.832c-0.281-0.283-0.556-0.557-0.821-0.82c-0.221-0.221-0.44-0.441-0.656-0.662
			c-0.216-0.223-0.421-0.438-0.615-0.641c-0.194-0.206-0.371-0.392-0.528-0.562c-0.157-0.168-0.289-0.311-0.395-0.423
			c-0.104-0.114-0.177-0.19-0.214-0.231H20.402L20.402,42.262z M29.53,44.924c0,0.312,0,0.604-0.001,0.879
			c-0.002,0.273-0.007,0.518-0.014,0.734c-0.007,0.219-0.019,0.398-0.035,0.542c-0.012,0.098-0.029,0.187-0.049,0.265
			c-0.021,0.08-0.049,0.144-0.088,0.194c-0.037,0.05-0.089,0.084-0.157,0.098c-0.045,0.01-0.098,0.021-0.159,0.028
			s-0.13,0.012-0.206,0.012c-0.059,0-0.102,0.007-0.127,0.021c-0.023,0.014-0.035,0.035-0.035,0.061
			c0,0.035,0.017,0.061,0.052,0.076c0.034,0.016,0.084,0.024,0.15,0.024c0.103-0.002,0.216-0.005,0.337-0.011
			c0.123-0.006,0.243-0.01,0.361-0.01c0.123-0.005,0.236-0.008,0.337-0.008c0.103-0.002,0.183-0.002,0.24-0.002
			c0.128,0,0.277,0.006,0.447,0.018c0.169,0.013,0.351,0.027,0.545,0.043c0.194,0.016,0.392,0.03,0.59,0.042
			c0.199,0.013,0.39,0.019,0.573,0.019c0.467-0.004,0.886-0.042,1.255-0.119c0.368-0.078,0.692-0.178,0.968-0.299
			c0.276-0.123,0.511-0.252,0.705-0.389c0.192-0.137,0.347-0.266,0.462-0.387c0.144-0.146,0.28-0.312,0.412-0.507
			c0.131-0.192,0.25-0.406,0.353-0.644c0.104-0.238,0.186-0.496,0.246-0.776c0.061-0.278,0.091-0.579,0.093-0.897
			c-0.004-0.4-0.051-0.762-0.142-1.084c-0.093-0.322-0.212-0.607-0.361-0.854c-0.146-0.246-0.307-0.457-0.479-0.633
			c-0.221-0.229-0.464-0.416-0.724-0.562c-0.261-0.147-0.533-0.26-0.816-0.342s-0.57-0.14-0.86-0.175
			c-0.29-0.036-0.575-0.058-0.855-0.065c-0.281-0.008-0.548-0.011-0.803-0.009c-0.204,0-0.406,0.003-0.604,0.009
			c-0.199,0.003-0.381,0.008-0.546,0.014c-0.166,0.004-0.302,0.008-0.408,0.008c-0.098,0-0.226-0.004-0.385-0.008
			c-0.159-0.006-0.332-0.011-0.52-0.014c-0.187-0.006-0.371-0.009-0.553-0.009c-0.076-0.002-0.131,0.005-0.168,0.019
			c-0.036,0.014-0.054,0.037-0.054,0.072c0,0.033,0.016,0.059,0.044,0.072c0.03,0.012,0.073,0.02,0.128,0.02
			c0.075,0,0.147,0.001,0.221,0.006c0.073,0.006,0.132,0.014,0.174,0.023c0.11,0.022,0.196,0.058,0.256,0.105
			c0.061,0.045,0.104,0.107,0.131,0.186c0.025,0.076,0.042,0.172,0.047,0.286c0.003,0.062,0.007,0.13,0.01,0.199
			c0.001,0.071,0.005,0.155,0.006,0.253c0,0.098,0.002,0.221,0.002,0.365c0.001,0.147,0.001,0.33,0.001,0.545
			c0,0.217,0,0.479,0,0.783V44.924L29.53,44.924z M30.795,42.98c0-0.202,0-0.402,0-0.605c0-0.202,0-0.395,0.001-0.576
			c0-0.185,0.002-0.348,0.003-0.493c0-0.146,0.003-0.261,0.005-0.349c0-0.057,0.008-0.098,0.027-0.129
			c0.019-0.029,0.049-0.055,0.094-0.074c0.022-0.01,0.058-0.02,0.108-0.028c0.05-0.009,0.109-0.015,0.175-0.022
			c0.065-0.006,0.131-0.012,0.197-0.015s0.125-0.005,0.177-0.005c0.199-0.002,0.417,0.008,0.651,0.031
			c0.236,0.024,0.479,0.072,0.733,0.141c0.253,0.068,0.506,0.17,0.759,0.305c0.253,0.135,0.496,0.314,0.73,0.535
			c0.111,0.104,0.223,0.232,0.335,0.39c0.113,0.155,0.218,0.339,0.313,0.548c0.096,0.211,0.174,0.449,0.231,0.713
			c0.059,0.266,0.089,0.558,0.091,0.88c0.002,0.349-0.023,0.679-0.076,0.993c-0.052,0.312-0.142,0.599-0.265,0.857
			c-0.125,0.26-0.295,0.482-0.51,0.669c-0.201,0.175-0.415,0.315-0.644,0.423c-0.228,0.107-0.481,0.185-0.756,0.233
			c-0.276,0.049-0.585,0.074-0.927,0.072c-0.265-0.001-0.489-0.022-0.67-0.062c-0.18-0.041-0.326-0.092-0.432-0.152
			c-0.106-0.061-0.182-0.125-0.225-0.191c-0.027-0.04-0.047-0.104-0.062-0.191c-0.015-0.09-0.026-0.186-0.033-0.291
			c-0.007-0.104-0.012-0.199-0.016-0.286c-0.003-0.065-0.006-0.192-0.01-0.378s-0.005-0.418-0.007-0.701
			c-0.002-0.283-0.003-0.605-0.003-0.965V42.98L30.795,42.98z M44.699,45.277c0.025,0,0.045,0.006,0.062,0.018
			c0.015,0.01,0.029,0.028,0.039,0.054l0.81,2.085c0.024,0.062,0.024,0.113,0,0.154c-0.022,0.041-0.052,0.068-0.091,0.078
			c-0.051,0.006-0.086,0.014-0.108,0.027c-0.024,0.014-0.034,0.033-0.034,0.064c0.001,0.033,0.028,0.053,0.084,0.062
			c0.054,0.009,0.126,0.015,0.219,0.019c0.272,0.007,0.53,0.012,0.774,0.014c0.245,0.004,0.465,0.005,0.661,0.005
			c0.194,0.002,0.354,0.002,0.477,0.002c0.124,0,0.219-0.003,0.287-0.009c0.068-0.005,0.115-0.016,0.142-0.03
			c0.025-0.015,0.039-0.035,0.037-0.062c0-0.035-0.012-0.059-0.036-0.068s-0.056-0.016-0.096-0.014
			c-0.061,0-0.128-0.003-0.201-0.008c-0.072-0.008-0.148-0.018-0.224-0.032c-0.052-0.011-0.111-0.032-0.175-0.065
			c-0.062-0.032-0.132-0.088-0.206-0.164s-0.153-0.184-0.238-0.324c-0.084-0.14-0.175-0.324-0.271-0.549
			c-0.081-0.195-0.175-0.422-0.283-0.684s-0.225-0.543-0.348-0.847c-0.125-0.306-0.253-0.619-0.384-0.942
			c-0.132-0.324-0.262-0.646-0.392-0.967s-0.254-0.627-0.373-0.921c-0.12-0.294-0.228-0.562-0.327-0.805
			c-0.098-0.243-0.182-0.448-0.251-0.617c-0.071-0.169-0.12-0.29-0.152-0.36c-0.049-0.115-0.093-0.199-0.13-0.25
			c-0.039-0.051-0.079-0.076-0.123-0.074c-0.049-0.002-0.093,0.028-0.133,0.093c-0.042,0.062-0.091,0.167-0.15,0.312l-2.54,6.274
			c-0.066,0.169-0.135,0.319-0.209,0.446c-0.074,0.131-0.164,0.234-0.267,0.314c-0.103,0.079-0.231,0.13-0.385,0.15
			c-0.042,0.004-0.094,0.01-0.153,0.014s-0.113,0.006-0.161,0.006c-0.04,0-0.07,0.006-0.091,0.02c-0.02,0.012-0.03,0.031-0.03,0.062
			c0,0.038,0.015,0.064,0.047,0.08c0.03,0.014,0.08,0.021,0.145,0.021c0.133,0,0.263-0.002,0.393-0.005
			c0.13-0.004,0.25-0.008,0.359-0.01c0.111-0.004,0.206-0.008,0.281-0.011c0.078-0.003,0.132-0.005,0.161-0.005
			c0.106,0,0.221,0.004,0.345,0.008c0.125,0.006,0.25,0.009,0.375,0.014c0.126,0.006,0.243,0.009,0.352,0.009
			c0.056,0,0.098-0.007,0.128-0.021c0.028-0.016,0.044-0.042,0.044-0.08c0.001-0.031-0.009-0.051-0.03-0.062
			c-0.022-0.014-0.062-0.02-0.122-0.02h-0.152c-0.154-0.002-0.262-0.03-0.32-0.088c-0.059-0.057-0.088-0.133-0.084-0.226
			c0-0.062,0.014-0.149,0.039-0.26c0.025-0.109,0.062-0.229,0.113-0.357l0.546-1.386c0.01-0.031,0.02-0.051,0.034-0.064
			c0.013-0.012,0.032-0.018,0.057-0.018H44.699L44.699,45.277z M42.645,44.771c-0.02,0-0.034-0.006-0.039-0.02
			c-0.007-0.014-0.007-0.031-0.002-0.051l0.931-2.479c0.005-0.022,0.014-0.042,0.024-0.062c0.01-0.018,0.022-0.027,0.037-0.029
			c0.015,0.002,0.025,0.012,0.034,0.029c0.007,0.02,0.012,0.039,0.017,0.062l0.911,2.489c0.005,0.016,0.005,0.031-0.002,0.043
			c-0.008,0.012-0.023,0.018-0.049,0.018H42.645L42.645,44.771z M49.941,48c0.179,0,0.361-0.012,0.543-0.035
			c0.182-0.025,0.364-0.068,0.543-0.129s0.354-0.145,0.523-0.251c0.241-0.16,0.432-0.339,0.57-0.538
			c0.14-0.197,0.238-0.401,0.297-0.61c0.058-0.211,0.086-0.415,0.084-0.612c0.002-0.24-0.029-0.465-0.088-0.68
			c-0.059-0.215-0.153-0.422-0.283-0.625c-0.13-0.205-0.3-0.41-0.513-0.619s-0.471-0.428-0.776-0.656l-0.283-0.213
			c-0.278-0.211-0.495-0.396-0.651-0.559c-0.157-0.162-0.267-0.313-0.331-0.455c-0.062-0.143-0.092-0.292-0.091-0.443
			c0.001-0.205,0.049-0.385,0.145-0.54c0.096-0.157,0.234-0.278,0.415-0.368c0.179-0.088,0.393-0.133,0.644-0.135
			c0.218,0.002,0.4,0.031,0.545,0.086s0.261,0.12,0.351,0.196c0.089,0.075,0.159,0.146,0.208,0.214
			c0.071,0.09,0.125,0.18,0.164,0.27c0.037,0.092,0.064,0.172,0.08,0.243c0.013,0.071,0.022,0.124,0.02,0.155
			c0,0.061,0.008,0.106,0.023,0.137c0.017,0.03,0.042,0.045,0.078,0.045c0.041,0.002,0.069-0.021,0.086-0.068
			c0.017-0.046,0.025-0.125,0.025-0.234c0-0.262,0.003-0.475,0.01-0.638c0.007-0.162,0.014-0.288,0.02-0.38
			c0.007-0.09,0.01-0.154,0.01-0.197c0-0.035-0.012-0.062-0.037-0.079c-0.023-0.019-0.059-0.032-0.104-0.042
			c-0.13-0.039-0.305-0.076-0.524-0.113c-0.221-0.037-0.494-0.055-0.821-0.059c-0.353,0.002-0.673,0.049-0.958,0.142
			c-0.287,0.095-0.533,0.226-0.739,0.396c-0.206,0.173-0.363,0.373-0.474,0.605c-0.109,0.233-0.165,0.49-0.167,0.77
			c-0.001,0.271,0.045,0.537,0.142,0.793s0.253,0.516,0.472,0.779c0.221,0.264,0.515,0.538,0.884,0.826l0.466,0.365
			c0.209,0.162,0.378,0.316,0.509,0.459c0.131,0.145,0.231,0.281,0.302,0.41c0.069,0.131,0.118,0.257,0.143,0.38
			c0.027,0.123,0.04,0.246,0.038,0.369c0,0.137-0.027,0.271-0.084,0.407c-0.056,0.135-0.14,0.26-0.251,0.371
			c-0.113,0.112-0.254,0.203-0.423,0.271c-0.17,0.066-0.369,0.102-0.597,0.104c-0.211,0.002-0.414-0.031-0.604-0.098
			c-0.192-0.067-0.363-0.176-0.509-0.326c-0.147-0.15-0.258-0.35-0.334-0.598c-0.025-0.088-0.047-0.179-0.064-0.273
			c-0.017-0.093-0.027-0.174-0.027-0.242c0.001-0.043-0.003-0.082-0.017-0.117c-0.012-0.035-0.041-0.054-0.084-0.055
			c-0.04,0.001-0.069,0.026-0.087,0.074c-0.019,0.049-0.029,0.11-0.034,0.188c-0.003,0.043-0.006,0.108-0.011,0.197
			c-0.005,0.09-0.012,0.196-0.017,0.318c-0.007,0.123-0.012,0.252-0.015,0.393c-0.005,0.139-0.007,0.277-0.007,0.418
			c0,0.072,0.003,0.131,0.013,0.172c0.01,0.043,0.029,0.076,0.058,0.102c0.027,0.025,0.067,0.049,0.122,0.07
			c0.216,0.096,0.442,0.164,0.681,0.205C49.385,47.981,49.649,48.002,49.941,48L49.941,48z M55.831,48
			c0.179,0,0.361-0.012,0.543-0.035c0.182-0.025,0.364-0.068,0.543-0.129s0.354-0.145,0.523-0.251
			c0.241-0.16,0.432-0.339,0.57-0.538c0.14-0.197,0.238-0.401,0.297-0.61c0.057-0.211,0.086-0.415,0.084-0.612
			c0.001-0.24-0.029-0.465-0.088-0.68s-0.153-0.422-0.283-0.625c-0.13-0.205-0.3-0.41-0.513-0.619s-0.471-0.428-0.776-0.656
			l-0.283-0.213c-0.279-0.211-0.495-0.396-0.651-0.559s-0.267-0.313-0.331-0.455c-0.062-0.143-0.092-0.292-0.091-0.443
			c0.001-0.205,0.049-0.385,0.145-0.54c0.096-0.157,0.234-0.278,0.415-0.368c0.179-0.088,0.393-0.133,0.645-0.135
			c0.217,0.002,0.4,0.031,0.545,0.086s0.261,0.12,0.351,0.196c0.089,0.075,0.159,0.146,0.208,0.214
			c0.071,0.09,0.125,0.18,0.164,0.27c0.037,0.092,0.064,0.172,0.079,0.243c0.014,0.071,0.022,0.124,0.021,0.155
			c0,0.061,0.008,0.106,0.023,0.137c0.017,0.03,0.042,0.045,0.078,0.045c0.041,0.002,0.069-0.021,0.086-0.068
			c0.017-0.046,0.025-0.125,0.025-0.234c0-0.262,0.003-0.475,0.01-0.638c0.007-0.162,0.014-0.288,0.02-0.38
			c0.007-0.09,0.01-0.154,0.01-0.197c0-0.035-0.012-0.062-0.037-0.079c-0.023-0.019-0.059-0.032-0.104-0.042
			c-0.13-0.039-0.305-0.076-0.524-0.113c-0.221-0.037-0.494-0.055-0.821-0.059c-0.353,0.002-0.673,0.049-0.958,0.142
			c-0.287,0.095-0.533,0.226-0.739,0.396c-0.206,0.173-0.362,0.373-0.474,0.605c-0.11,0.233-0.166,0.49-0.167,0.77
			c-0.002,0.271,0.045,0.537,0.142,0.793s0.253,0.516,0.472,0.779c0.221,0.264,0.515,0.538,0.884,0.826l0.466,0.365
			c0.209,0.162,0.378,0.316,0.509,0.459c0.131,0.145,0.231,0.281,0.302,0.41c0.069,0.131,0.118,0.257,0.143,0.38
			c0.027,0.123,0.039,0.246,0.038,0.369c0,0.137-0.027,0.271-0.084,0.407c-0.056,0.135-0.14,0.26-0.251,0.371
			c-0.113,0.112-0.254,0.203-0.423,0.271c-0.17,0.066-0.369,0.102-0.597,0.104c-0.21,0.002-0.413-0.031-0.604-0.098
			c-0.192-0.067-0.363-0.176-0.509-0.326c-0.147-0.15-0.258-0.35-0.334-0.598c-0.025-0.088-0.047-0.179-0.064-0.273
			c-0.017-0.093-0.027-0.174-0.027-0.242c0.002-0.043-0.003-0.082-0.017-0.117c-0.012-0.035-0.041-0.054-0.084-0.055
			c-0.041,0.001-0.069,0.026-0.087,0.074c-0.019,0.049-0.029,0.11-0.034,0.188c-0.003,0.043-0.006,0.108-0.012,0.197
			c-0.005,0.09-0.012,0.196-0.017,0.318c-0.007,0.123-0.012,0.252-0.015,0.393c-0.005,0.139-0.007,0.277-0.007,0.418
			c0,0.072,0.003,0.131,0.013,0.172c0.01,0.043,0.029,0.076,0.058,0.102c0.027,0.025,0.067,0.049,0.122,0.07
			c0.216,0.096,0.442,0.164,0.681,0.205C55.274,47.981,55.539,48.002,55.831,48L55.831,48z M63.774,48
			c0.515-0.002,0.99-0.07,1.424-0.209s0.819-0.332,1.162-0.584c0.34-0.253,0.63-0.55,0.87-0.896c0.238-0.345,0.42-0.724,0.545-1.14
			c0.125-0.415,0.189-0.855,0.189-1.32c-0.002-0.582-0.096-1.105-0.285-1.569c-0.188-0.466-0.459-0.863-0.815-1.192
			c-0.354-0.33-0.784-0.584-1.287-0.759c-0.503-0.176-1.069-0.263-1.702-0.265c-0.506,0.002-0.96,0.059-1.363,0.174
			c-0.405,0.113-0.761,0.27-1.069,0.471c-0.311,0.199-0.575,0.43-0.796,0.689c-0.221,0.262-0.401,0.539-0.543,0.834
			c-0.14,0.298-0.243,0.598-0.309,0.902c-0.067,0.308-0.1,0.605-0.1,0.896c0,0.301,0.034,0.605,0.102,0.916
			c0.067,0.311,0.17,0.612,0.31,0.908s0.321,0.572,0.538,0.83c0.219,0.258,0.479,0.486,0.781,0.682
			c0.302,0.197,0.647,0.352,1.037,0.461C62.854,47.941,63.291,47.998,63.774,48L63.774,48z M64.2,47.494
			c-0.39-0.002-0.746-0.066-1.069-0.191s-0.612-0.301-0.864-0.531c-0.253-0.229-0.465-0.5-0.639-0.814
			c-0.175-0.312-0.307-0.659-0.398-1.037c-0.091-0.377-0.137-0.777-0.137-1.201c0.002-0.502,0.051-0.934,0.146-1.297
			c0.097-0.362,0.228-0.664,0.395-0.906s0.356-0.434,0.568-0.574c0.214-0.142,0.438-0.242,0.675-0.302
			c0.234-0.062,0.47-0.089,0.705-0.088c0.418,0.002,0.806,0.087,1.164,0.255s0.671,0.413,0.941,0.732
			c0.27,0.318,0.479,0.705,0.631,1.156c0.15,0.453,0.228,0.962,0.229,1.53c-0.001,0.485-0.044,0.903-0.125,1.258
			c-0.081,0.353-0.188,0.649-0.325,0.89s-0.29,0.435-0.457,0.583c-0.169,0.149-0.341,0.263-0.516,0.341
			c-0.177,0.078-0.344,0.129-0.504,0.158C64.459,47.482,64.319,47.496,64.2,47.494z"/>
		<path fill-rule="evenodd" clip-rule="evenodd" fill="#FFFFFF" d="M22.019,27.969c-0.613-0.066-1.096-0.157-1.448-0.287
			c-0.353-0.125-0.639-0.287-0.848-0.483c-0.268-0.235-0.463-0.691-0.581-1.382c-0.118-0.686-0.183-1.611-0.209-2.779
			c-0.026-1.167-0.039-2.583-0.033-4.252v-6.888V8.871c0-0.835,0-1.54,0.007-2.107c0-0.561,0.006-1.037,0.013-1.416
			c0-0.378,0.013-0.704,0.02-0.978l0.039-0.77c0.026-0.678,0.15-1.2,0.359-1.559c0.208-0.352,0.574-0.58,1.089-0.672
			c0.241-0.039,0.502-0.071,0.776-0.091c0.281-0.019,0.529-0.026,0.75-0.026c0.234,0,0.411-0.026,0.528-0.072
			c0.117-0.052,0.176-0.15,0.176-0.281c0-0.137-0.071-0.228-0.208-0.28c-0.137-0.052-0.339-0.072-0.613-0.072
			c-0.391,0-0.835,0.007-1.344,0.02c-0.502,0.006-1.017,0.026-1.539,0.039l-1.428,0.039c-0.431,0.013-0.77,0.02-1.011,0.02
			c-0.267,0-0.613-0.006-1.024-0.02l-1.363-0.039c-0.495-0.013-0.998-0.033-1.506-0.039c-0.516-0.013-1.005-0.02-1.468-0.02
			c-0.293-0.006-0.509,0.02-0.652,0.072c-0.137,0.052-0.208,0.144-0.208,0.28c0,0.131,0.059,0.229,0.169,0.281
			c0.117,0.045,0.281,0.072,0.496,0.072c0.254,0,0.496,0.007,0.718,0.026c0.222,0.02,0.417,0.053,0.574,0.091
			c0.424,0.085,0.757,0.222,0.992,0.404c0.235,0.177,0.404,0.418,0.509,0.718c0.098,0.294,0.163,0.665,0.183,1.109l0.039,0.77
			c0.007,0.274,0.02,0.6,0.026,0.978c0,0.378,0.007,0.854,0.007,1.416c0.006,0.567,0.006,1.272,0.006,2.107v3.026v6.888
			c0,1.207,0,2.335-0.006,3.398c-0.007,1.057-0.026,2.003-0.052,2.844s-0.072,1.539-0.137,2.094
			c-0.046,0.378-0.111,0.724-0.189,1.024c-0.078,0.307-0.189,0.555-0.339,0.75c-0.144,0.195-0.345,0.326-0.606,0.378
			c-0.176,0.039-0.378,0.078-0.613,0.11c-0.235,0.027-0.502,0.047-0.795,0.047c-0.229,0-0.392,0.025-0.489,0.084
			c-0.091,0.053-0.137,0.131-0.137,0.229c0,0.137,0.065,0.234,0.203,0.301c0.13,0.058,0.326,0.09,0.58,0.09
			c0.398-0.006,0.835-0.02,1.305-0.039c0.476-0.025,0.939-0.039,1.396-0.039c0.477-0.02,0.914-0.032,1.305-0.032
			c0.398-0.007,0.705-0.007,0.926-0.007c0.535,0,1.05,0.007,1.559,0.014c0.509,0.006,1.024,0.02,1.552,0.039
			c0.522,0.02,1.083,0.039,1.664,0.064l2.909,0.072c1.07,0.026,2.309,0.046,3.705,0.046c0.502,0,0.906-0.013,1.212-0.046
			c0.3-0.025,0.536-0.084,0.692-0.162c0.163-0.072,0.287-0.184,0.365-0.32c0.078-0.137,0.143-0.312,0.196-0.529
			c0.065-0.234,0.124-0.521,0.183-0.859c0.059-0.347,0.111-0.705,0.156-1.09c0.052-0.385,0.098-0.75,0.13-1.109
			c0.039-0.352,0.065-0.658,0.085-0.919c0.02-0.255,0.033-0.431,0.033-0.522c0.006-0.234-0.013-0.404-0.052-0.508
			c-0.039-0.105-0.13-0.157-0.261-0.157c-0.15,0-0.261,0.06-0.319,0.163c-0.059,0.104-0.098,0.248-0.111,0.424
			c-0.026,0.254-0.091,0.528-0.196,0.828c-0.098,0.294-0.222,0.581-0.365,0.848c-0.144,0.274-0.301,0.496-0.457,0.672
			c-0.326,0.347-0.711,0.602-1.161,0.758c-0.45,0.156-0.959,0.254-1.526,0.286c-0.567,0.04-1.2,0.06-1.892,0.053
			C23.454,28.06,22.639,28.027,22.019,27.969L22.019,27.969z M133.338,2.74v16.045c0,1.207,0,2.335-0.006,3.398
			c-0.008,1.057-0.026,2.003-0.053,2.844c-0.025,0.841-0.072,1.539-0.137,2.094c-0.053,0.574-0.156,1.057-0.32,1.441
			c-0.162,0.385-0.43,0.626-0.814,0.711c-0.177,0.039-0.379,0.078-0.613,0.11c-0.234,0.027-0.502,0.047-0.796,0.047
			c-0.229,0-0.392,0.025-0.489,0.084c-0.092,0.053-0.137,0.131-0.137,0.229c0,0.137,0.064,0.234,0.202,0.301
			c0.13,0.058,0.326,0.09,0.581,0.09c0.396,0,0.834-0.006,1.304-0.02l1.409-0.039l1.291-0.039c0.385-0.013,0.698-0.02,0.926-0.02
			c0.372,0,0.875,0.014,1.507,0.033c0.634,0.02,1.344,0.033,2.14,0.052c0.796,0.021,1.631,0.032,2.498,0.032
			c0.222,0,0.398-0.032,0.535-0.09c0.137-0.066,0.201-0.164,0.209-0.301c0-0.098-0.053-0.176-0.15-0.229
			c-0.104-0.059-0.262-0.084-0.477-0.084c-0.195,0-0.418-0.008-0.658-0.02l-0.705-0.06c-0.234-0.026-0.443-0.052-0.633-0.078
			c-0.385-0.052-0.685-0.177-0.893-0.372c-0.209-0.195-0.354-0.443-0.443-0.743c-0.092-0.294-0.157-0.633-0.189-0.998
			c-0.066-0.567-0.111-1.272-0.137-2.12c-0.026-0.848-0.047-1.8-0.053-2.856c-0.007-1.063-0.007-2.191-0.007-3.398V2.74l4.931,0.117
			c1.154,0.033,2.062,0.156,2.727,0.378c0.672,0.215,1.148,0.489,1.436,0.809c0.287,0.326,0.443,0.659,0.456,1.004l0.039,0.431
			c0.02,0.287,0.052,0.489,0.111,0.613c0.065,0.118,0.169,0.17,0.319,0.17c0.117,0,0.195-0.059,0.248-0.17
			c0.053-0.104,0.084-0.261,0.104-0.457c0-0.267,0.008-0.606,0.021-1.024l0.038-1.317l0.04-1.285
			c0.013-0.392,0.019-0.698,0.019-0.914c0.008-0.293-0.012-0.502-0.051-0.632s-0.131-0.189-0.262-0.189
			c-0.078,0-0.195,0.02-0.365,0.052c-0.17,0.04-0.397,0.085-0.691,0.144c-0.287,0.039-0.658,0.085-1.102,0.124
			c-0.438,0.045-0.973,0.065-1.598,0.072H129.15c-0.431,0-0.88-0.006-1.337-0.026c-0.456-0.013-0.907-0.039-1.344-0.065
			c-0.437-0.033-0.848-0.065-1.232-0.104c-0.319-0.033-0.587-0.084-0.802-0.157c-0.209-0.072-0.385-0.143-0.522-0.208
			c-0.137-0.065-0.255-0.098-0.358-0.104c-0.117,0-0.209,0.059-0.281,0.183c-0.071,0.117-0.13,0.306-0.188,0.561
			c-0.02,0.072-0.052,0.248-0.118,0.528c-0.059,0.281-0.123,0.62-0.201,1.011c-0.085,0.392-0.157,0.79-0.235,1.194
			s-0.137,0.77-0.188,1.089c-0.053,0.319-0.078,0.541-0.078,0.678c0,0.215,0.02,0.372,0.07,0.476c0.053,0.098,0.145,0.15,0.281,0.15
			c0.117,0,0.209-0.039,0.273-0.117c0.066-0.079,0.118-0.196,0.156-0.352c0.04-0.157,0.111-0.353,0.217-0.581
			c0.104-0.234,0.254-0.495,0.449-0.789c0.189-0.287,0.438-0.502,0.744-0.659c0.299-0.157,0.697-0.267,1.193-0.339
			c0.488-0.071,1.109-0.117,1.859-0.137L133.338,2.74L133.338,2.74z M163.474,2.74v16.045c0,1.207,0,2.335-0.007,3.398
			c-0.006,1.057-0.025,2.003-0.052,2.844s-0.072,1.539-0.138,2.094c-0.052,0.574-0.156,1.057-0.319,1.441s-0.431,0.626-0.815,0.711
			c-0.176,0.039-0.378,0.078-0.613,0.11c-0.234,0.027-0.502,0.047-0.795,0.047c-0.229,0-0.392,0.025-0.49,0.084
			c-0.09,0.053-0.137,0.131-0.137,0.229c0,0.137,0.065,0.234,0.203,0.301c0.13,0.058,0.326,0.09,0.58,0.09
			c0.398,0,0.835-0.006,1.305-0.02l1.408-0.039l1.291-0.039c0.386-0.013,0.698-0.02,0.927-0.02c0.372,0,0.874,0.014,1.507,0.033
			s1.344,0.033,2.139,0.052c0.797,0.021,1.631,0.032,2.498,0.032c0.223,0,0.398-0.032,0.535-0.09
			c0.137-0.066,0.203-0.164,0.209-0.301c0-0.098-0.053-0.176-0.15-0.229c-0.104-0.059-0.261-0.084-0.476-0.084
			c-0.196,0-0.417-0.008-0.659-0.02l-0.704-0.06c-0.235-0.026-0.444-0.052-0.633-0.078c-0.384-0.052-0.685-0.177-0.894-0.372
			s-0.352-0.443-0.443-0.743c-0.092-0.294-0.156-0.633-0.189-0.998c-0.064-0.567-0.111-1.272-0.137-2.12
			c-0.026-0.848-0.046-1.8-0.053-2.856c-0.006-1.063-0.006-2.191-0.006-3.398V2.74l4.931,0.117c1.155,0.033,2.062,0.156,2.726,0.378
			c0.673,0.215,1.148,0.489,1.436,0.809c0.287,0.326,0.443,0.659,0.457,1.004l0.039,0.431c0.02,0.287,0.052,0.489,0.111,0.613
			c0.064,0.118,0.169,0.17,0.318,0.17c0.118,0,0.196-0.059,0.248-0.17c0.053-0.104,0.086-0.261,0.105-0.457
			c0-0.267,0.006-0.606,0.02-1.024l0.039-1.317l0.039-1.285c0.013-0.392,0.02-0.698,0.02-0.914c0.006-0.293-0.014-0.502-0.053-0.632
			s-0.131-0.189-0.261-0.189c-0.078,0-0.196,0.02-0.365,0.052c-0.17,0.04-0.397,0.085-0.691,0.144
			c-0.286,0.039-0.659,0.085-1.103,0.124c-0.437,0.045-0.972,0.065-1.598,0.072h-15.497c-0.431,0-0.88-0.006-1.337-0.026
			c-0.457-0.013-0.906-0.039-1.344-0.065c-0.438-0.033-0.848-0.065-1.232-0.104c-0.32-0.033-0.588-0.084-0.803-0.157
			c-0.209-0.072-0.385-0.143-0.521-0.208c-0.137-0.065-0.254-0.098-0.359-0.104c-0.117,0-0.208,0.059-0.279,0.183
			c-0.072,0.117-0.131,0.306-0.189,0.561c-0.02,0.072-0.053,0.248-0.118,0.528c-0.058,0.281-0.124,0.62-0.202,1.011
			c-0.084,0.392-0.156,0.79-0.234,1.194s-0.137,0.77-0.189,1.089s-0.078,0.541-0.078,0.678c0,0.215,0.02,0.372,0.072,0.476
			c0.052,0.098,0.143,0.15,0.279,0.15c0.117,0,0.209-0.039,0.274-0.117c0.065-0.079,0.118-0.196,0.156-0.352
			c0.04-0.157,0.111-0.353,0.216-0.581c0.104-0.234,0.254-0.495,0.449-0.789c0.189-0.287,0.438-0.502,0.744-0.659
			c0.301-0.157,0.697-0.267,1.193-0.339c0.489-0.071,1.109-0.117,1.859-0.137L163.474,2.74L163.474,2.74z M188.404,11.897v6.888
			c0,1.207,0,2.335-0.007,3.398c-0.007,1.057-0.026,2.003-0.052,2.844c-0.026,0.841-0.072,1.539-0.138,2.094
			c-0.046,0.378-0.11,0.724-0.188,1.024c-0.078,0.307-0.189,0.555-0.34,0.75c-0.143,0.195-0.346,0.326-0.606,0.378
			c-0.176,0.039-0.378,0.078-0.613,0.11c-0.234,0.027-0.502,0.047-0.796,0.047c-0.228,0-0.391,0.025-0.488,0.084
			c-0.092,0.053-0.137,0.131-0.137,0.229c0,0.137,0.064,0.234,0.201,0.301c0.131,0.058,0.326,0.09,0.581,0.09
			c0.397-0.006,0.835-0.02,1.304-0.039c0.477-0.025,0.939-0.039,1.396-0.039c0.477-0.02,0.913-0.032,1.305-0.032
			c0.397-0.007,0.704-0.007,0.926-0.007c0.58,0,1.193,0.007,1.846,0.027c0.652,0.019,1.39,0.051,2.225,0.09l2.916,0.072
			c1.107,0.026,2.393,0.046,3.854,0.046c0.489,0.007,0.875-0.007,1.148-0.039s0.482-0.118,0.626-0.261
			c0.144-0.144,0.255-0.385,0.339-0.718c0.053-0.202,0.104-0.502,0.164-0.88c0.059-0.385,0.11-0.803,0.162-1.246
			c0.053-0.451,0.098-0.875,0.131-1.271c0.032-0.398,0.052-0.711,0.052-0.947c0.007-0.201-0.007-0.364-0.039-0.495
			c-0.032-0.137-0.124-0.202-0.274-0.208c-0.13,0-0.228,0.039-0.286,0.13c-0.06,0.091-0.111,0.241-0.144,0.456
			c-0.131,0.797-0.332,1.416-0.601,1.873c-0.273,0.456-0.658,0.795-1.161,1.023c-0.346,0.156-0.736,0.262-1.18,0.332
			c-0.438,0.066-0.881,0.105-1.318,0.118c-0.437,0.02-0.834,0.02-1.18,0.02c-0.992,0.007-1.794-0.039-2.407-0.131
			c-0.612-0.098-1.083-0.261-1.409-0.502c-0.326-0.235-0.547-0.573-0.678-1.005c-0.124-0.43-0.189-0.979-0.202-1.649
			c-0.007-0.235-0.013-0.548-0.013-0.939c-0.007-0.392-0.007-0.829-0.007-1.305c0.007-0.476,0.007-0.952,0.007-1.441
			c0.006-0.482,0.006-0.933,0.006-1.35c0.007-0.417,0.007-0.756,0.007-1.03v-3.092c0-0.117,0.013-0.215,0.046-0.287
			c0.032-0.065,0.091-0.104,0.189-0.104c0.195,0,0.482,0,0.867,0.006c0.385,0,0.809,0.006,1.277,0.013l1.403,0.02
			c0.463,0.013,0.88,0.02,1.239,0.033c0.358,0.013,0.613,0.026,0.77,0.045c0.482,0.052,0.867,0.15,1.167,0.293
			c0.3,0.137,0.528,0.313,0.692,0.521c0.162,0.209,0.273,0.451,0.332,0.711c0.059,0.254,0.092,0.509,0.111,0.75
			c0.012,0.241,0.032,0.463,0.045,0.659c0,0.098,0.025,0.183,0.072,0.248c0.052,0.065,0.143,0.104,0.279,0.104
			c0.118-0.006,0.197-0.045,0.248-0.124c0.053-0.078,0.079-0.176,0.092-0.287c0.014-0.118,0.014-0.228,0.014-0.333
			c0-0.072,0.006-0.215,0.02-0.417l0.045-0.705c0.014-0.267,0.033-0.535,0.053-0.802l0.039-0.698
			c0.052-0.659,0.104-1.188,0.15-1.579c0.045-0.391,0.084-0.685,0.117-0.874c0.032-0.195,0.045-0.332,0.045-0.404
			c0-0.118-0.025-0.196-0.078-0.248c-0.053-0.045-0.117-0.065-0.195-0.065c-0.092,0-0.189,0.045-0.281,0.137
			c-0.098,0.091-0.208,0.215-0.346,0.372c-0.176,0.189-0.41,0.326-0.717,0.411c-0.307,0.085-0.691,0.144-1.161,0.176
			c-0.188,0.013-0.495,0.026-0.913,0.04c-0.418,0.006-0.9,0.019-1.428,0.019c-0.535,0.007-1.07,0.013-1.605,0.013
			c-0.527,0.007-1.004,0.007-1.422,0.007h-0.893c-0.117,0-0.189-0.039-0.229-0.111c-0.033-0.078-0.053-0.183-0.046-0.319V3.013
			c0-0.137,0.02-0.234,0.065-0.3c0.039-0.065,0.111-0.091,0.209-0.091c0.162,0,0.437,0,0.814,0.006
			c0.379,0.007,0.809,0.014,1.285,0.026c0.482,0.006,0.965,0.02,1.441,0.033s0.894,0.026,1.259,0.045
			c0.365,0.013,0.613,0.026,0.757,0.046c0.646,0.078,1.141,0.183,1.486,0.313c0.353,0.13,0.607,0.287,0.77,0.469
			c0.164,0.183,0.287,0.392,0.366,0.626c0.065,0.156,0.117,0.333,0.149,0.515c0.033,0.176,0.059,0.353,0.065,0.509
			c0.013,0.163,0.021,0.287,0.021,0.384c0,0.176,0.025,0.313,0.07,0.405c0.053,0.091,0.145,0.144,0.281,0.144
			c0.137-0.007,0.229-0.053,0.287-0.144c0.052-0.091,0.091-0.183,0.104-0.288c0.02-0.124,0.039-0.306,0.059-0.548
			c0.02-0.241,0.04-0.496,0.053-0.776c0.02-0.274,0.033-0.528,0.053-0.756l0.032-0.502c0.039-0.593,0.085-1.057,0.13-1.402
			c0.053-0.339,0.092-0.593,0.131-0.763c0.033-0.169,0.053-0.293,0.053-0.378c0-0.098-0.014-0.183-0.047-0.248
			c-0.032-0.065-0.09-0.104-0.188-0.104c-0.098,0.006-0.202,0.026-0.313,0.065s-0.215,0.065-0.312,0.091
			c-0.163,0.04-0.385,0.079-0.678,0.118c-0.295,0.039-0.627,0.079-1.006,0.118c-0.13,0.006-0.43,0.013-0.893,0.013
			c-0.463,0.007-1.031,0.013-1.695,0.013c-0.666,0.007-1.371,0.007-2.113,0.007l-2.153,0.006h-1.819h-1.109
			c-0.28,0-0.633-0.006-1.057-0.026c-0.424-0.013-0.893-0.032-1.408-0.052c-0.496,0-1.012-0.007-1.553-0.02
			c-0.548-0.013-1.082-0.02-1.617-0.02c-0.294,0-0.509,0.02-0.652,0.072c-0.137,0.052-0.209,0.144-0.209,0.28
			c0,0.131,0.059,0.229,0.17,0.281c0.117,0.045,0.28,0.072,0.496,0.072c0.287,0,0.566,0.007,0.854,0.026
			c0.281,0.02,0.51,0.053,0.672,0.091c0.424,0.092,0.757,0.222,0.992,0.404c0.234,0.183,0.404,0.418,0.508,0.718
			c0.098,0.3,0.164,0.665,0.184,1.109l0.039,0.77c0.006,0.274,0.02,0.6,0.025,0.978c0,0.378,0.007,0.854,0.007,1.422
			c0.007,0.561,0.007,1.266,0.007,2.101V11.897L188.404,11.897z M97.567,27.184l0.005-14.141l0.001-2.215l-3.761,2.012l0,0.204
			l0.041,10.479c-0.024-0.037-0.047-0.074-0.071-0.111c-0.128-0.204-0.251-0.414-0.37-0.627c-0.678-1.213-1.187-2.55-1.539-4.011
			c-0.353-1.461-0.528-3.007-0.528-4.644c0.007-1.944,0.195-3.614,0.567-5.016c0.372-1.402,0.88-2.57,1.526-3.509
			c0.646-0.933,1.376-1.676,2.198-2.217c0.829-0.548,1.696-0.939,2.609-1.168c0.907-0.235,1.82-0.346,2.727-0.339
			c1.618,0.006,3.118,0.333,4.5,0.985c1.383,0.652,2.596,1.598,3.639,2.831c1.045,1.232,1.854,2.726,2.44,4.474
			c0.58,1.749,0.88,3.718,0.887,5.916c-0.007,1.879-0.169,3.496-0.482,4.865c-0.313,1.363-0.731,2.511-1.259,3.437
			c-0.152,0.27-0.311,0.523-0.475,0.764l0.039-12.107v-0.202l-3.716-1.988l-0.002,2.19l-0.016,15.086l-0.006,1.949
			c0.236-0.063,0.469-0.132,0.7-0.206c1.069-0.341,2.064-0.769,2.988-1.287c0.524-0.294,1.025-0.617,1.506-0.97
			c1.317-0.979,2.439-2.126,3.365-3.463c0.92-1.331,1.623-2.798,2.106-4.409c0.482-1.605,0.73-3.307,0.73-5.107
			c-0.007-2.25-0.372-4.272-1.103-6.066c-0.724-1.8-1.773-3.339-3.15-4.611c-1.369-1.278-3.032-2.256-4.977-2.935
			c-1.943-0.679-4.134-1.018-6.581-1.024c-1.957,0.007-3.711,0.229-5.271,0.672c-1.565,0.437-2.941,1.044-4.135,1.82
			c-1.2,0.77-2.224,1.663-3.079,2.667c-0.854,1.011-1.552,2.087-2.1,3.229c-0.541,1.148-0.939,2.309-1.193,3.489
			c-0.261,1.188-0.385,2.342-0.385,3.464c0,1.161,0.13,2.341,0.391,3.542c0.261,1.2,0.659,2.367,1.2,3.515
			c0.542,1.141,1.239,2.211,2.081,3.209c0.848,0.998,1.853,1.878,3.02,2.635c0.366,0.238,0.748,0.461,1.146,0.666
			c0.031,0.016,0.061,0.031,0.092,0.047c0.85,0.432,1.774,0.787,2.773,1.068c0.268,0.076,0.543,0.146,0.823,0.209l0.095,0.02
			L97.567,27.184L97.567,27.184z M62.129,19.795c-1.872,2.896-3.731,5.779-5.577,8.656c-0.157,0.229-0.274,0.417-0.359,0.555
			c-0.084,0.143-0.144,0.26-0.183,0.352c-0.032,0.092-0.045,0.182-0.045,0.268c0,0.137,0.059,0.234,0.169,0.3
			c0.118,0.059,0.28,0.091,0.496,0.091c2.628,0,5.133,0.02,7.507,0.053c2.381,0.032,4.683,0.059,6.914,0.092
			c2.224,0.032,4.422,0.052,6.594,0.052c0.345,0,0.606-0.079,0.776-0.248c0.176-0.163,0.307-0.417,0.398-0.771
			c0.072-0.254,0.15-0.58,0.242-0.984c0.084-0.397,0.169-0.834,0.254-1.298c0.078-0.463,0.15-0.919,0.202-1.356
			c0.052-0.438,0.084-0.815,0.084-1.135c0.007-0.463-0.02-0.783-0.078-0.959c-0.052-0.176-0.156-0.261-0.313-0.254
			c-0.111,0-0.196,0.059-0.254,0.17c-0.052,0.104-0.098,0.26-0.137,0.455c-0.059,0.281-0.144,0.582-0.261,0.914
			c-0.118,0.326-0.267,0.646-0.443,0.965c-0.196,0.398-0.529,0.757-0.985,1.083c-0.457,0.319-1.102,0.581-1.931,0.771
			c-0.829,0.195-1.904,0.293-3.229,0.299h-9.627c1.846-2.811,3.718-5.667,5.629-8.57c1.904-2.903,3.802-5.825,5.694-8.767
			c1.891-2.941,3.737-5.876,5.544-8.805c0.084-0.137,0.157-0.268,0.215-0.385c0.065-0.124,0.098-0.242,0.098-0.359
			c0-0.098-0.065-0.176-0.183-0.228c-0.124-0.059-0.28-0.085-0.482-0.085H66.923c-0.522,0-1.109,0-1.754,0.006
			c-0.646,0-1.403-0.006-2.283-0.026c-0.88-0.013-1.931-0.046-3.163-0.098c-0.32-0.013-0.574-0.045-0.763-0.091
			c-0.189-0.039-0.339-0.084-0.457-0.124c-0.118-0.033-0.235-0.059-0.346-0.059c-0.117-0.006-0.215,0.052-0.293,0.163
			c-0.079,0.118-0.137,0.307-0.176,0.581L57.531,1.97c-0.065,0.391-0.131,0.815-0.202,1.278c-0.072,0.463-0.144,0.919-0.203,1.37
			c-0.065,0.45-0.117,0.854-0.156,1.213c-0.045,0.359-0.065,0.632-0.065,0.822c-0.006,0.235,0.013,0.404,0.052,0.509
			s0.13,0.157,0.261,0.157c0.118,0.006,0.215-0.046,0.294-0.15c0.078-0.098,0.137-0.287,0.176-0.555
			c0.04-0.307,0.144-0.652,0.313-1.037c0.17-0.378,0.404-0.75,0.705-1.108c0.3-0.365,0.666-0.666,1.096-0.907
			c0.431-0.234,0.952-0.411,1.572-0.528c0.626-0.117,1.291-0.195,1.996-0.241c0.705-0.039,1.396-0.059,2.067-0.052h7.67
			c-1.754,2.759-3.548,5.563-5.394,8.42L62.129,19.795L62.129,19.795z M40.029,22.32c-0.006,1.083-0.026,2.047-0.052,2.896
			c-0.026,0.848-0.071,1.546-0.136,2.101c-0.053,0.566-0.157,1.018-0.32,1.344c-0.163,0.332-0.43,0.533-0.815,0.612
			c-0.176,0.039-0.378,0.078-0.613,0.11c-0.235,0.027-0.502,0.047-0.796,0.047c-0.228,0-0.391,0.025-0.489,0.084
			c-0.091,0.053-0.137,0.131-0.137,0.229c0,0.137,0.065,0.234,0.202,0.301c0.131,0.058,0.326,0.09,0.581,0.09
			c0.398,0,0.835-0.006,1.304-0.02l1.409-0.039l1.292-0.039c0.385-0.013,0.698-0.02,0.926-0.02c0.359,0,0.854,0.014,1.481,0.033
			c0.626,0.02,1.337,0.033,2.126,0.052c0.795,0.021,1.63,0.032,2.498,0.032c0.222,0,0.398-0.032,0.535-0.09
			c0.137-0.066,0.202-0.164,0.208-0.301c0-0.098-0.052-0.176-0.15-0.229c-0.104-0.059-0.261-0.084-0.476-0.084
			c-0.202,0-0.417-0.008-0.659-0.02l-0.705-0.06c-0.235-0.026-0.443-0.052-0.632-0.078c-0.385-0.052-0.685-0.163-0.9-0.333
			s-0.372-0.385-0.47-0.652c-0.098-0.267-0.163-0.58-0.195-0.932c-0.052-0.568-0.085-1.272-0.111-2.127
			c-0.019-0.854-0.032-1.82-0.039-2.909c-0.006-1.089-0.006-2.264-0.006-3.535v-6.888V8.871c0-0.835,0-1.54,0.006-2.107
			c0-0.567,0.007-1.037,0.013-1.416c0-0.378,0.013-0.704,0.02-0.978l0.039-0.77c0.026-0.678,0.15-1.2,0.359-1.559
			c0.209-0.352,0.574-0.58,1.089-0.672c0.228-0.039,0.437-0.071,0.613-0.091c0.183-0.019,0.372-0.026,0.561-0.026
			c0.196,0,0.353-0.026,0.457-0.078c0.111-0.059,0.17-0.163,0.17-0.313c0-0.117-0.079-0.195-0.222-0.248
			c-0.144-0.045-0.346-0.065-0.6-0.065c-0.378,0-0.789,0.007-1.233,0.02c-0.45,0.006-0.893,0.026-1.343,0.039l-1.246,0.039
			c-0.385,0.013-0.704,0.02-0.952,0.02c-0.287,0-0.646-0.006-1.063-0.02l-1.35-0.039c-0.477-0.013-0.946-0.033-1.409-0.039
			c-0.463-0.013-0.887-0.02-1.265-0.02c-0.313,0-0.548,0.02-0.705,0.065c-0.157,0.052-0.235,0.13-0.235,0.248
			c0,0.15,0.059,0.255,0.169,0.313c0.104,0.052,0.261,0.078,0.457,0.078c0.235,0,0.476,0.007,0.718,0.033
			c0.241,0.026,0.476,0.065,0.691,0.124c0.43,0.091,0.75,0.313,0.958,0.672c0.215,0.352,0.339,0.854,0.372,1.52l0.039,0.77
			c0.007,0.274,0.02,0.6,0.026,0.978c0,0.378,0.006,0.849,0.006,1.416c0.007,0.567,0.007,1.272,0.007,2.107v3.026v6.888
			C40.036,20.056,40.036,21.23,40.029,22.32z"/>
		<path fill-rule="evenodd" clip-rule="evenodd" fill="#FFFFFF" d="M101.758,31.275L101.756,8.59l-3.711,1.985l0.024,20.722
			C55.448,31.637,18.965,34.307,0,38.107c26.15-2.678,64.51-4.367,107.253-4.367s81.104,1.689,107.254,4.367
			c-20.314-4.07-60.727-6.846-107.254-6.846h-1.35c0.022-0.286,0.035-0.629,0.035-1.039l0.032-19.678l-3.834-2.051l0.103,22.779
			L101.758,31.275z"/>
	</g>
</g>
</svg>
